<?xml version="1.0" encoding="UTF-8" standalone="no"?>
<svg
   xmlns:dc="http://purl.org/dc/elements/1.1/"
   xmlns:cc="http://creativecommons.org/ns#"
   xmlns:rdf="http://www.w3.org/1999/02/22-rdf-syntax-ns#"
   xmlns:svg="http://www.w3.org/2000/svg"
   xmlns="http://www.w3.org/2000/svg"
   xmlns:sodipodi="http://sodipodi.sourceforge.net/DTD/sodipodi-0.dtd"
   xmlns:inkscape="http://www.inkscape.org/namespaces/inkscape"
   version="1.0"
   width="120.00001"
   height="109.37924"
   viewBox="0 0 96.000008 87.503391"
   preserveAspectRatio="xMidYMid meet"
   id="svg2"
   inkscape:version="0.48.4 r9939"
   sodipodi:docname="9_32.svg">
  <defs
     id="defs28" />
  <sodipodi:namedview
     pagecolor="#ffffff"
     bordercolor="#666666"
     borderopacity="1"
     objecttolerance="10"
     gridtolerance="10"
     guidetolerance="10"
     inkscape:pageopacity="0"
     inkscape:pageshadow="2"
     inkscape:window-width="1440"
     inkscape:window-height="848"
     id="namedview26"
     showgrid="false"
     fit-margin-top="0"
     fit-margin-left="0"
     fit-margin-right="0"
     fit-margin-bottom="0"
     inkscape:zoom="2.6700352"
     inkscape:cx="142.90243"
     inkscape:cy="47.298505"
     inkscape:window-x="0"
     inkscape:window-y="31"
     inkscape:window-maximized="1"
     inkscape:current-layer="svg2" />
  <metadata
     id="metadata4">
Created by potrace 1.11, written by Peter Selinger 2001-2013
<rdf:RDF>
  <cc:Work
     rdf:about="">
    <dc:format>image/svg+xml</dc:format>
    <dc:type
       rdf:resource="http://purl.org/dc/dcmitype/StillImage" />
  </cc:Work>
</rdf:RDF>
</metadata>
  <g
     transform="matrix(0.02785558,0,0,-0.02785558,-9.7789769,99.625343)"
     id="g6"
     style="fill:#000000;stroke:none">
    <path
       d="m 1760,3565 c -159,-30 -329,-107 -491,-221 -297,-211 -404,-393 -339,-583 35,-104 82,-191 132,-247 38,-41 62,-57 118,-78 83,-30 80,-30 80,-13 0,7 -26,21 -57,31 -131,41 -263,252 -263,420 0,53 6,75 36,135 96,192 451,444 729,518 136,36 338,38 495,4 212,-45 435,-133 554,-218 31,-23 52,-31 58,-25 14,14 -91,83 -206,138 -109,51 -246,97 -376,125 -125,27 -365,34 -470,14 z"
       id="path8"
       inkscape:connector-curvature="0" />
    <path
       d="m 2971,3275 c -102,-25 -197,-81 -280,-164 -81,-82 -232,-284 -319,-428 -85,-141 -207,-409 -191,-419 6,-3 12,-4 14,-2 2,1 28,61 58,131 83,190 168,333 326,542 99,132 143,179 216,230 147,104 325,125 559,65 234,-60 372,-187 407,-375 15,-77 5,-291 -16,-369 -8,-32 -27,-88 -41,-123 -34,-85 -18,-107 19,-26 76,169 97,425 48,582 -61,195 -217,306 -505,356 -105,18 -220,18 -295,0 z"
       id="path10"
       inkscape:connector-curvature="0" />
    <path
       d="m 2923,3163 c -9,-3 -6,-16 11,-46 14,-23 50,-104 80,-180 97,-243 175,-346 386,-507 138,-104 198,-167 238,-246 68,-136 87,-254 79,-472 -10,-251 -55,-391 -179,-551 -132,-169 -497,-362 -707,-373 -36,-2 -56,-8 -59,-17 -4,-12 8,-13 68,-7 129,12 259,56 414,140 277,151 423,343 470,616 44,261 22,510 -62,675 -42,85 -107,153 -242,255 -212,161 -293,268 -389,515 -56,143 -90,205 -108,198 z"
       id="path12"
       inkscape:connector-curvature="0" />
    <path
       d="m 1010,2925 c 0,-9 9,-15 22,-15 32,0 158,-66 222,-117 37,-29 66,-63 83,-96 32,-65 29,-113 -22,-315 -61,-241 -112,-374 -288,-757 -53,-114 -81,-215 -60,-215 5,0 18,28 27,63 10,34 50,132 91,218 175,370 280,689 292,889 5,78 3,90 -20,135 -36,72 -151,159 -268,206 -60,23 -79,24 -79,4 z"
       id="path14"
       inkscape:connector-curvature="0" />
    <path
       d="m 792,2890 c -120,-70 -286,-260 -368,-425 -115,-232 -95,-453 67,-716 135,-221 276,-357 438,-421 47,-19 75,-22 176,-22 115,0 133,3 445,77 374,89 470,113 478,121 20,20 -25,16 -141,-13 -314,-78 -682,-160 -744,-166 -208,-20 -415,113 -598,385 -182,273 -216,509 -102,735 74,147 231,336 341,409 29,19 56,42 60,51 7,19 10,20 -52,-15 z"
       id="path16"
       inkscape:connector-curvature="0" />
    <path
       d="m 1410,2387 c 0,-9 33,-19 98,-31 144,-27 423,-100 539,-140 311,-109 432,-191 514,-351 19,-36 40,-65 47,-65 17,0 16,4 -25,84 -54,103 -145,189 -264,248 -189,94 -424,169 -732,233 -194,41 -177,39 -177,22 z"
       id="path18"
       inkscape:connector-curvature="0" />
    <path
       d="m 3540,2158 c -36,-29 -113,-66 -292,-142 -86,-36 -271,-118 -410,-182 -283,-130 -417,-186 -560,-234 -56,-19 -98,-38 -98,-46 0,-29 282,77 625,236 110,51 306,139 436,195 222,95 339,156 339,175 0,18 -16,17 -40,-2 z"
       id="path20"
       inkscape:connector-curvature="0" />
    <path
       d="m 2097,2078 c -62,-168 -68,-299 -22,-483 73,-291 161,-447 373,-662 91,-92 153,-135 170,-119 4,4 -2,14 -13,21 -77,53 -108,81 -188,170 -162,180 -215,270 -281,473 -75,234 -84,378 -32,537 30,93 31,98 18,103 -5,1 -16,-17 -25,-40 z"
       id="path22"
       inkscape:connector-curvature="0" />
    <path
       d="m 2667,1654 c -3,-3 3,-26 14,-51 47,-111 61,-191 66,-393 6,-221 -2,-285 -47,-377 -54,-109 -183,-207 -370,-279 -328,-126 -595,-124 -811,7 -211,129 -441,408 -511,619 -13,38 -29,70 -35,70 -16,0 -16,4 3,-61 65,-220 312,-523 529,-651 216,-127 466,-136 775,-29 282,97 422,212 473,388 23,76 31,287 18,423 -13,129 -21,164 -57,268 -25,68 -33,80 -47,66 z"
       id="path24"
       inkscape:connector-curvature="0" />
  </g>
</svg>
