<?xml version="1.0" standalone="no"?>
<!DOCTYPE svg PUBLIC "-//W3C//DTD SVG 20010904//EN"
 "http://www.w3.org/TR/2001/REC-SVG-20010904/DTD/svg10.dtd">
<svg version="1.0" xmlns="http://www.w3.org/2000/svg"
 width="400.000000pt" height="400.000000pt" viewBox="0 0 400.000000 400.000000"
 preserveAspectRatio="xMidYMid meet">
<metadata>
Created by potrace 1.11, written by Peter Selinger 2001-2013
</metadata>
<g transform="translate(0.000000,400.000000) scale(0.100000,-0.100000)"
fill="#000000" stroke="none">
<path d="M2224 3636 c-150 -31 -321 -87 -419 -134 -115 -57 -249 -162 -206
-162 5 0 41 23 78 51 119 89 257 148 465 199 234 57 402 62 559 15 222 -67
401 -249 550 -560 81 -168 109 -260 116 -377 10 -163 -27 -249 -160 -374 -180
-169 -362 -283 -509 -320 -44 -10 -68 -21 -68 -30 0 -11 8 -13 28 -8 70 16
183 58 242 91 151 82 386 284 439 378 93 164 75 363 -59 643 -155 324 -335
508 -566 582 -108 35 -341 38 -490 6z"/>
<path d="M1325 3304 c-142 -21 -290 -72 -459 -158 -341 -174 -506 -372 -546
-658 -37 -266 91 -755 242 -922 50 -55 51 -24 2 41 -133 174 -234 544 -221
812 14 314 183 530 562 718 317 159 567 185 754 80 110 -62 441 -424 598 -654
35 -52 60 -80 69 -76 27 10 -153 250 -345 462 -215 236 -280 290 -399 332 -53
18 -199 31 -257 23z"/>
<path d="M1477 3156 c-29 -91 -39 -270 -34 -581 5 -317 23 -476 73 -649 26
-91 101 -266 114 -266 19 0 15 19 -25 103 -88 190 -133 433 -142 777 -7 264 8
511 37 601 24 77 23 69 7 69 -7 0 -21 -24 -30 -54z"/>
<path d="M2783 2590 c-109 -15 -185 -39 -293 -91 -210 -101 -341 -208 -405
-330 -36 -69 -42 -89 -26 -89 6 0 26 30 46 68 61 117 185 222 372 316 182 91
273 110 538 110 162 0 208 -3 243 -17 34 -13 42 -14 42 -3 0 29 -63 39 -260
42 -107 1 -223 -1 -257 -6z"/>
<path d="M3437 2456 c-3 -8 1 -20 10 -27 21 -18 76 -106 103 -165 59 -131 109
-323 131 -502 10 -81 10 -122 1 -200 -36 -286 -193 -480 -535 -658 -330 -171
-563 -199 -757 -92 -101 57 -420 395 -580 615 -41 57 -78 103 -82 103 -19 0
-4 -30 57 -115 155 -216 484 -566 585 -622 98 -53 154 -67 275 -66 154 0 287
38 487 139 353 177 524 372 569 648 39 246 -54 674 -191 876 -47 70 -66 86
-73 66z"/>
<path d="M2405 2350 c-3 -5 7 -35 23 -67 68 -134 109 -294 137 -522 35 -291
27 -763 -14 -883 -16 -46 -17 -58 -6 -58 79 0 89 758 15 1140 -24 128 -51 214
-99 316 -40 85 -45 92 -56 74z"/>
<path d="M1570 2105 c0 -13 11 -15 68 -10 104 10 178 -8 373 -95 228 -102 235
-103 402 -101 49 1 68 4 65 13 -3 9 -30 11 -91 9 -108 -3 -154 9 -360 101
-195 86 -236 98 -359 98 -82 0 -98 -3 -98 -15z"/>
<path d="M1311 2060 c-147 -42 -316 -151 -494 -320 -142 -135 -185 -233 -174
-399 14 -222 195 -582 387 -772 161 -159 312 -220 545 -220 156 1 342 38 530
108 183 67 386 203 343 229 -6 4 -14 2 -16 -4 -7 -22 -142 -113 -225 -152
-105 -49 -258 -100 -392 -130 -146 -33 -350 -34 -455 -1 -127 39 -206 87 -306
186 -105 104 -172 200 -261 373 -103 202 -142 356 -123 480 19 116 51 171 160
276 186 178 343 279 507 326 45 13 80 27 77 32 -7 12 -30 9 -103 -12z"/>
<path d="M1944 1870 c-63 -120 -189 -228 -381 -324 -182 -91 -273 -110 -538
-110 -142 -1 -211 3 -237 12 -48 17 -71 5 -32 -17 23 -12 69 -16 208 -19 300
-7 413 14 611 113 146 73 267 158 327 231 38 47 98 152 98 174 0 27 -22 3 -56
-60z"/>
</g>
</svg>
