<?xml version="1.0" encoding="UTF-8" standalone="no"?>
<svg
   xmlns:dc="http://purl.org/dc/elements/1.1/"
   xmlns:cc="http://creativecommons.org/ns#"
   xmlns:rdf="http://www.w3.org/1999/02/22-rdf-syntax-ns#"
   xmlns:svg="http://www.w3.org/2000/svg"
   xmlns="http://www.w3.org/2000/svg"
   xmlns:sodipodi="http://sodipodi.sourceforge.net/DTD/sodipodi-0.dtd"
   xmlns:inkscape="http://www.inkscape.org/namespaces/inkscape"
   width="212.30624"
   height="85.331245"
   viewBox="0 0 141.5375 142.21875"
   version="1.0"
   id="svg2486"
   sodipodi:version="0.32"
   inkscape:version="0.48.4 r9939"
   sodipodi:docname="sum.svg"
   inkscape:output_extension="org.inkscape.output.svg.inkscape">
  <metadata
     id="metadata2511">
    <rdf:RDF>
      <cc:Work
         rdf:about="">
        <dc:format>image/svg+xml</dc:format>
        <dc:type
           rdf:resource="http://purl.org/dc/dcmitype/StillImage" />
      </cc:Work>
    </rdf:RDF>
  </metadata>
  <sodipodi:namedview
     inkscape:window-height="900"
     inkscape:window-width="1280"
     inkscape:pageshadow="2"
     inkscape:pageopacity="0.0"
     guidetolerance="10.0"
     gridtolerance="10.0"
     objecttolerance="10.0"
     borderopacity="1.0"
     bordercolor="#666666"
     pagecolor="#ffffff"
     id="base"
     showgrid="false"
     inkscape:zoom="1.8101934"
     inkscape:cx="182.36656"
     inkscape:cy="-62.306623"
     inkscape:window-x="0"
     inkscape:window-y="31"
     inkscape:current-layer="svg2486"
     inkscape:window-maximized="0"
     fit-margin-top="0"
     fit-margin-left="0"
     fit-margin-right="0"
     fit-margin-bottom="0" />
  <defs
     id="defs2488">
    <inkscape:perspective
       sodipodi:type="inkscape:persp3d"
       inkscape:vp_x="0 : 125 : 1"
       inkscape:vp_y="0 : 1000 : 0"
       inkscape:vp_z="250 : 125 : 1"
       inkscape:persp3d-origin="125 : 83.333333 : 1"
       id="perspective2513" />
    <clipPath
       id="clip0">
      <rect
         width="200"
         height="200"
         id="rect2491"
         x="0"
         y="0" />
    </clipPath>
    <inkscape:perspective
       id="perspective2550"
       inkscape:persp3d-origin="372.04724 : 350.78739 : 1"
       inkscape:vp_z="744.09448 : 526.18109 : 1"
       inkscape:vp_y="0 : 1000 : 0"
       inkscape:vp_x="0 : 526.18109 : 1"
       sodipodi:type="inkscape:persp3d" />
  </defs>
  <path
     style="fill:none;stroke:#000000;stroke-width:2.36210227;stroke-linecap:round;stroke-linejoin:miter;stroke-miterlimit:4;stroke-opacity:1;stroke-dasharray:none"
     d="m -33.623674,30.535755 c -20.796668,3.099111 -71.361186,30.175555 -71.361186,57.904475 0,27.72886 99.497845,15.49552 128.368523,-20.38891"
     id="path2558"
     sodipodi:nodetypes="css"
     inkscape:connector-curvature="0" />
  <path
     style="fill:none;stroke:#000000;stroke-width:2.36210227;stroke-linecap:round;stroke-linejoin:miter;stroke-miterlimit:4;stroke-opacity:1;stroke-dasharray:none"
     d="m 32.517889,57.44906 c 3.343775,-4.64865 13.375109,-20.633528 13.375109,-20.633528 0,0 14.027557,-1.060226 28.381297,1.875777 14.353804,2.936001 25.037599,10.357541 25.037599,10.357541 0,0 -7.910843,12.31492 -7.910843,26.01623 0,13.70132 13.538189,46.48669 57.251939,50.23831"
     id="path3330"
     sodipodi:nodetypes="ccscss"
     inkscape:connector-curvature="0" />
  <path
     style="fill:none;stroke:#000000;stroke-width:2.36210227;stroke-linecap:round;stroke-linejoin:miter;stroke-miterlimit:4;stroke-opacity:1;stroke-dasharray:none"
     d="m 160.48477,126.38003 c 0,0 86.03488,10.50417 86.03488,-62.89585 0,-21.997765 -10.36869,-29.734749 -18.7139,-37.076069 -19.50023,-17.154493 -48.48541,-9.772196 -52.56564,-1.744363"
     id="path3332"
     sodipodi:nodetypes="csss"
     inkscape:connector-curvature="0" />
  <path
     style="fill:none;stroke:#000000;stroke-width:2.36210227;stroke-linecap:round;stroke-linejoin:miter;stroke-miterlimit:4;stroke-opacity:1;stroke-dasharray:none"
     d="m 169.69431,34.939747 c -7.12981,15.869373 -8.39498,34.599713 -1.0003,50.522573 8.71662,15.00544 19.86726,30.80444 21.22613,35.92635"
     id="path3334"
     sodipodi:nodetypes="ccs"
     inkscape:connector-curvature="0" />
  <path
     style="fill:none;stroke:#000000;stroke-width:2.36210227;stroke-linecap:round;stroke-linejoin:miter;stroke-miterlimit:4;stroke-opacity:1;stroke-dasharray:none"
     d="m 188.28904,133.78502 c -3.1807,3.26232 -8.48183,7.25858 -19.49181,7.25858 -11.01002,0 -13.7013,-7.17699 -13.7013,-11.01005 0,-3.83314 4.23544,-20.55039 12.77035,-33.35272"
     id="path3336"
     sodipodi:nodetypes="csss"
     inkscape:connector-curvature="0" />
  <path
     style="fill:none;stroke:#000000;stroke-width:2.36210227;stroke-linecap:round;stroke-linejoin:miter;stroke-miterlimit:4;stroke-opacity:1;stroke-dasharray:none"
     d="m 174.55581,86.6465 c 5.42095,-7.26628 13.60979,-20.29931 13.60979,-31.25635 0,-10.95702 -14.64775,-35.869815 -45.44273,-35.869815 -22.31378,0 -34.71643,16.493193 -34.71643,16.493193 0,0 -20.29933,-9.572972 -28.834269,-11.418355 -8.534914,-1.845406 -29.699254,-4.267475 -29.699254,-4.267475 0,0 -0.980368,-19.145943 -25.893155,-19.145943 -24.912779,0 -43.25137,13.840436 -54.900407,39.560592 -11.649037,25.720133 -9.342298,53.401033 -9.342298,53.401033"
     id="path3338"
     sodipodi:nodetypes="csscscssc"
     inkscape:connector-curvature="0" />
  <path
     style="fill:none;stroke:#000000;stroke-width:2.36210227;stroke-linecap:round;stroke-linejoin:miter;stroke-miterlimit:4;stroke-opacity:1;stroke-dasharray:none"
     d="m -38.190791,108.33972 c 0,0 6.442896,29.03375 33.682451,29.03375 27.239561,0 38.331116,-29.35993 38.331116,-49.58568 0,-20.2258 -14.027557,-54.642257 -52.195561,-56.925815"
     id="path3342"
     sodipodi:nodetypes="csss"
     inkscape:connector-curvature="0" />
</svg>
