<?xml version="1.0" encoding="UTF-8" standalone="no"?>
<svg
   xmlns:dc="http://purl.org/dc/elements/1.1/"
   xmlns:cc="http://creativecommons.org/ns#"
   xmlns:rdf="http://www.w3.org/1999/02/22-rdf-syntax-ns#"
   xmlns:svg="http://www.w3.org/2000/svg"
   xmlns="http://www.w3.org/2000/svg"
   width="150"
   height="78"
   viewBox="0 0 120 62.399999"
   version="1.1"
   id="svg2">
  <metadata
     id="metadata22">
    <rdf:RDF>
      <cc:Work
         rdf:about="">
        <dc:format>image/svg+xml</dc:format>
        <dc:type
           rdf:resource="http://purl.org/dc/dcmitype/StillImage" />
        <dc:title></dc:title>
      </cc:Work>
    </rdf:RDF>
  </metadata>
  <defs
     id="defs20" />
  <path
     d="m 8.74419,0.63263878 96,0 0,60.29751922 -96,0 0,-60.29751922 z"
     id="path4"
     style="fill:#ffffff" />
  <path
     d="m 85.468805,5.0954528 c 2.99101,-2.384136 6.8548,-4.070086 10.74242,-3.403647 3.276715,0.551411 6.601085,2.598351 7.632375,5.894885 0.95219,2.320654 0.63069,4.8991642 0.28975,7.3110662 -0.89267,4.466774 -2.7294,8.671746 -4.748465,12.733895 -0.41257,-0.166616 -0.82521,-0.33324 -1.23379,-0.503803 1.916095,-3.824145 3.657615,-7.78314 4.585805,-11.98018 0.54354,-2.824451 0.74175,-5.9504082 -0.76568,-8.5289122 -1.62242,-2.273062 -4.347725,-3.657531 -7.136415,-3.720999 -3.320515,-0.182481 -6.410615,1.507438 -8.91369,3.538521 C 80.99413,10.633288 77.58648,16.373465 75.34523,22.387343 c -1.07504,3.086279 -1.967575,6.323315 -1.836665,9.623807 0.07125,2.630074 0.80524,5.188851 1.7574,7.624511 -0.309545,0.11508 -0.93239,0.345105 -1.241775,0.4601 -0.91643,-2.459515 -1.701815,-5.018175 -1.80502,-7.656187 -0.23394,-4.411237 1.10302,-8.731237 2.772905,-12.761647 2.38423,-5.525953 5.756105,-10.7742222 10.47673,-14.5824742 z"
     id="path6"
     style="fill:#000000" />
  <path
     d="m 16.392446,3.8974268 c 3.324303,-2.217522 7.771242,-1.45587 10.877369,0.797358 4.395369,2.955372 7.418176,7.4578582 9.972879,12.0039712 -0.388757,0.226104 -0.781494,0.452233 -1.174204,0.67439 -2.396044,-4.395389 -5.32761,-8.6876172 -9.512738,-11.5557182 -2.479333,-1.76133 -5.882962,-2.677685 -8.715363,-1.205955 -2.372231,1.384484 -4.351735,3.586124 -5.172893,6.2479412 -1.245619,3.958998 -0.380827,8.259179 1.209917,11.988107 2.122316,4.907096 5.506124,9.207263 9.520655,12.70212 3.451242,2.98308 7.561002,5.367347 12.099183,6.160757 -0.07934,0.32126 -0.241993,0.96389 -0.321317,1.28529 C 28.33294,41.749918 22.553122,37.283251 18.12999,32.106355 14.012294,27.151652 10.731628,21.046513 10.739562,14.457427 c 0.07537,-2.538834 0.781488,-5.1054512 2.253228,-7.1999992 0.848913,-1.376529 2.2056,-2.312718 3.399656,-3.360001 z"
     id="path8"
     style="fill:#000000" />
  <path
     d="m 34.334932,19.511316 c 5.192724,-1.693889 10.607609,-2.995038 16.105786,-2.87604 7.465748,0.245948 14.923712,0.710091 22.393412,0.916376 -0.0085,0.333207 -0.02835,1.007587 -0.0399,1.340811 -3.895545,-0.194377 -7.79505,-0.269747 -11.690495,-0.507754 -4.62957,-0.103153 -9.254872,-0.591087 -13.888303,-0.361005 -7.07706,0.686274 -13.967637,2.868101 -20.306802,6.053556 -2.340491,1.182154 -4.494548,2.673729 -6.589086,4.24464 -0.261711,-0.337191 -0.519566,-0.670427 -0.781382,-1.007618 4.323981,-3.601976 9.524639,-5.946434 14.796701,-7.802966 z"
     id="path10"
     style="fill:#000000" />
  <path
     d="m 79.339815,18.813146 c 5.41091,0.956016 10.206935,4.022456 14.118375,7.775191 5.04201,4.851566 9.12799,11.079784 10.18722,18.101121 0.5791,4.1932 -0.50776,8.88196 -3.79242,11.74623 -2.110575,2.29676 -5.383205,3.33218 -8.42984,2.60614 -4.657145,-1.30513 -8.171925,-4.97045 -10.91697,-8.78665 -1.261405,-1.59492 -2.13824,-3.43541 -3.225065,-5.14526 0.376795,-0.22986 0.75754,-0.46414 1.14238,-0.69799 2.598405,4.66891 5.752015,9.29448 10.393405,12.13882 2.26122,1.26935 5.09357,1.97941 7.53329,0.76141 3.02671,-1.4519 5.28394,-4.4627 5.8671,-7.779 0.8649,-4.41523 -0.61891,-8.89796 -2.630095,-12.797377 -3.35217,-6.136875 -8.421785,-11.436693 -14.65384,-14.669751 -1.856585,-0.952073 -3.856,-1.582813 -5.899065,-1.967618 0.0755,-0.321317 0.22633,-0.963955 0.305525,-1.285266 z"
     id="path12"
     style="fill:#000000" />
  <path
     d="m 39.269815,22.125528 c 0.313381,-0.09519 0.936194,-0.289572 1.249586,-0.384791 1.515371,3.847923 2.364287,8.084631 1.519342,12.19438 -1.328928,6.970001 -4.550092,13.574801 -9.10414,19.009501 -2.665785,3.05058 -5.914714,5.87515 -9.925293,6.9145 -3.92727,1.13045 -8.481319,-0.16268 -11.12727,-3.30838 -1.64628,-2.22162 -2.0350396,-5.14519 -1.725619,-7.84258 0.571239,-5.16904 2.772893,-9.957177 4.990404,-14.598504 0.396712,0.206302 0.789435,0.408606 1.186115,0.614877 -2.257187,4.66504 -4.4747,9.508697 -4.9309,14.737227 -0.150743,1.96756 0.17058,3.98662 1.142481,5.72027 2.193728,3.09013 6.422481,4.47069 10.048269,3.42743 3.895526,-1.02344 7.009581,-3.82417 9.576188,-6.80719 4.304144,-5.25625 7.366612,-11.591422 8.600332,-18.287651 0.809255,-3.847927 -0.138842,-7.783145 -1.499495,-11.389089 z"
     id="path14"
     style="fill:#000000" />
  <path
     d="m 88.606715,37.239546 c 1.900035,-1.217805 3.73678,-2.542783 5.624975,-3.784428 0.242115,0.364954 0.484105,0.729918 0.729975,1.09486 -2.05094,1.328953 -3.978735,2.848288 -6.101045,4.054178 -2.800805,1.09101 -5.44653,2.642012 -8.421965,3.205302 -2.122235,0.43632 -4.18893,1.21386 -6.370895,1.27747 -2.46333,0.16645 -4.922875,0.44427 -7.394255,0.39261 -5.034185,-0.27771 -10.064238,0.23003 -15.098264,0.19839 -3.010863,-0.24977 -6.013863,-0.57128 -9.028743,-0.72977 0.0079,-0.32542 0.0278,-0.972 0.0397,-1.29731 3.399673,0.10708 6.771585,0.61091 10.171255,0.74566 4.375547,-0.13475 8.751057,-0.39645 13.134582,-0.31326 3.221165,0.24189 6.44223,-0.20626 9.651525,-0.46013 2.34056,-0.56335 4.708705,-1.04335 7.00964,-1.757472 2.023175,-0.856755 4.062025,-1.68588 6.053415,-2.6261 z"
     id="path16"
     style="fill:#000000" />
  <flowRoot
     xml:space="preserve"
     id="flowRoot3295-4"
     style="font-style:italic;font-variant:normal;font-weight:normal;font-stretch:normal;line-height:0.01%;font-family:'URW Bookman L';-inkscape-font-specification:'URW Bookman L Italic';letter-spacing:0px;word-spacing:0px;fill:#000000;fill-opacity:1;stroke:none"
     transform="matrix(0.8,0,0,0.8,-150.04062,-301.54836)"><flowRegion
       id="flowRegion3297-3-1"><rect
         id="rect3299-0-8"
         width="31.358953"
         height="20.091017"
         x="187.3833"
         y="374.80237"
         style="font-size:14px;font-style:italic;font-variant:normal;font-weight:normal;font-stretch:normal;font-family:URW Bookman L;-inkscape-font-specification:URW Bookman L Italic" /></flowRegion><flowPara
       id="flowPara3301-89"
       style="font-style:italic;font-variant:normal;font-weight:normal;font-stretch:normal;font-size:14px;line-height:1.25;font-family:'URW Bookman L';-inkscape-font-specification:'URW Bookman L Italic'">a<flowSpan
   style="font-size:65.0009%;baseline-shift:sub"
   id="flowSpan3004">1</flowSpan></flowPara></flowRoot>
  <flowRoot
     xml:space="preserve"
     id="flowRoot3295-4-8"
     style="font-style:italic;font-variant:normal;font-weight:normal;font-stretch:normal;line-height:0.01%;font-family:'URW Bookman L';-inkscape-font-specification:'URW Bookman L Italic';letter-spacing:0px;word-spacing:0px;fill:#000000;fill-opacity:1;stroke:none"
     transform="matrix(0.8,0,0,0.8,-97.90433,-258.49351)"><flowRegion
       id="flowRegion3297-3-1-2"><rect
         id="rect3299-0-8-7"
         width="31.358953"
         height="20.091017"
         x="187.3833"
         y="374.80237"
         style="font-size:14px;font-style:italic;font-variant:normal;font-weight:normal;font-stretch:normal;font-family:URW Bookman L;-inkscape-font-specification:URW Bookman L Italic" /></flowRegion><flowPara
       id="flowPara3301-89-9"
       style="font-style:italic;font-variant:normal;font-weight:normal;font-stretch:normal;font-size:14px;line-height:1.25;font-family:'URW Bookman L';-inkscape-font-specification:'URW Bookman L Italic'">a<flowSpan
   style="font-size:65.0009%;baseline-shift:sub"
   id="flowSpan3004-1">2</flowSpan></flowPara></flowRoot>
  <flowRoot
     xml:space="preserve"
     id="flowRoot3295-4-5"
     style="font-style:italic;font-variant:normal;font-weight:normal;font-stretch:normal;line-height:0.01%;font-family:'URW Bookman L';-inkscape-font-specification:'URW Bookman L Italic';letter-spacing:0px;word-spacing:0px;fill:#000000;fill-opacity:1;stroke:none"
     transform="matrix(0.8,0,0,0.8,-43.84865,-301.71595)"><flowRegion
       id="flowRegion3297-3-1-29"><rect
         id="rect3299-0-8-0"
         width="31.358953"
         height="20.091017"
         x="187.3833"
         y="374.80237"
         style="font-size:14px;font-style:italic;font-variant:normal;font-weight:normal;font-stretch:normal;font-family:URW Bookman L;-inkscape-font-specification:URW Bookman L Italic" /></flowRegion><flowPara
       id="flowPara3301-89-5"
       style="font-style:italic;font-variant:normal;font-weight:normal;font-stretch:normal;font-size:14px;line-height:1.25;font-family:'URW Bookman L';-inkscape-font-specification:'URW Bookman L Italic'">a<flowSpan
   style="font-size:65.0009%;baseline-shift:sub"
   id="flowSpan3004-0">3</flowSpan></flowPara></flowRoot>
  <flowRoot
     xml:space="preserve"
     id="flowRoot3295-4-6"
     style="font-style:italic;font-variant:normal;font-weight:normal;font-stretch:normal;line-height:0.01%;font-family:'URW Bookman L';-inkscape-font-specification:'URW Bookman L Italic';letter-spacing:0px;word-spacing:0px;fill:#000000;fill-opacity:1;stroke:none"
     transform="matrix(0.8,0,0,0.8,-48.237573,-250.52508)"><flowRegion
       id="flowRegion3297-3-1-1"><rect
         id="rect3299-0-8-1"
         width="31.358953"
         height="20.091017"
         x="187.3833"
         y="374.80237"
         style="font-size:14px;font-style:italic;font-variant:normal;font-weight:normal;font-stretch:normal;font-family:URW Bookman L;-inkscape-font-specification:URW Bookman L Italic" /></flowRegion><flowPara
       id="flowPara3301-89-0"
       style="font-style:italic;font-variant:normal;font-weight:normal;font-stretch:normal;font-size:14px;line-height:1.25;font-family:'URW Bookman L';-inkscape-font-specification:'URW Bookman L Italic'">a<flowSpan
   style="font-size:65.0009%;baseline-shift:sub"
   id="flowSpan3004-7">4</flowSpan></flowPara></flowRoot>
  <flowRoot
     xml:space="preserve"
     id="flowRoot3295-4-87"
     style="font-style:italic;font-variant:normal;font-weight:normal;font-stretch:normal;line-height:0.01%;font-family:'URW Bookman L';-inkscape-font-specification:'URW Bookman L Italic';letter-spacing:0px;word-spacing:0px;fill:#000000;fill-opacity:1;stroke:none"
     transform="matrix(0.8,0,0,0.8,-98.74229,-298.37993)"><flowRegion
       id="flowRegion3297-3-1-3"><rect
         id="rect3299-0-8-3"
         width="31.358953"
         height="20.091017"
         x="187.3833"
         y="374.80237"
         style="font-size:14px;font-style:italic;font-variant:normal;font-weight:normal;font-stretch:normal;font-family:URW Bookman L;-inkscape-font-specification:URW Bookman L Italic" /></flowRegion><flowPara
       id="flowPara3301-89-4"
       style="font-style:italic;font-variant:normal;font-weight:normal;font-stretch:normal;font-size:14px;line-height:1.25;font-family:'URW Bookman L';-inkscape-font-specification:'URW Bookman L Italic'">a<flowSpan
   style="font-size:65.0009%;baseline-shift:sub"
   id="flowSpan3004-9">5</flowSpan></flowPara></flowRoot>
  <flowRoot
     xml:space="preserve"
     id="flowRoot3295-4-2"
     style="font-style:italic;font-variant:normal;font-weight:normal;font-stretch:normal;line-height:0.01%;font-family:'URW Bookman L';-inkscape-font-specification:'URW Bookman L Italic';letter-spacing:0px;word-spacing:0px;fill:#000000;fill-opacity:1;stroke:none"
     transform="matrix(0.8,0,0,0.8,-150.6952,-250.78437)"><flowRegion
       id="flowRegion3297-3-1-0"><rect
         id="rect3299-0-8-5"
         width="31.358953"
         height="20.091017"
         x="187.3833"
         y="374.80237"
         style="font-size:14px;font-style:italic;font-variant:normal;font-weight:normal;font-stretch:normal;font-family:URW Bookman L;-inkscape-font-specification:URW Bookman L Italic" /></flowRegion><flowPara
       id="flowPara3301-89-3"
       style="font-style:italic;font-variant:normal;font-weight:normal;font-stretch:normal;font-size:14px;line-height:1.25;font-family:'URW Bookman L';-inkscape-font-specification:'URW Bookman L Italic'">a<flowSpan
   style="font-size:65.0009%;baseline-shift:sub"
   id="flowSpan3004-2">6</flowSpan></flowPara></flowRoot>
  <path
     id="path3266"
     d="m 23.56591,33.005268 1.115805,4.460702 -4.603853,-0.876283"
     style="fill:none;stroke:#000000;stroke-width:0.80000001;stroke-linecap:butt;stroke-linejoin:miter;stroke-miterlimit:4;stroke-opacity:1;stroke-dasharray:none" />
</svg>
