<?xml version="1.0" encoding="UTF-8" standalone="no"?>
<svg
   xmlns:dc="http://purl.org/dc/elements/1.1/"
   xmlns:cc="http://creativecommons.org/ns#"
   xmlns:rdf="http://www.w3.org/1999/02/22-rdf-syntax-ns#"
   xmlns:svg="http://www.w3.org/2000/svg"
   xmlns="http://www.w3.org/2000/svg"
   xmlns:sodipodi="http://sodipodi.sourceforge.net/DTD/sodipodi-0.dtd"
   xmlns:inkscape="http://www.inkscape.org/namespaces/inkscape"
   width="349.36063"
   height="86.17524"
   viewBox="0 0 279.48851 68.940189"
   version="1.1"
   id="svg3106"
   inkscape:version="0.48.4 r9939"
   sodipodi:docname="grannyandsquare.svg">
  <metadata
     id="metadata3128">
    <rdf:RDF>
      <cc:Work
         rdf:about="">
        <dc:format>image/svg+xml</dc:format>
        <dc:type
           rdf:resource="http://purl.org/dc/dcmitype/StillImage" />
        <dc:title />
      </cc:Work>
    </rdf:RDF>
  </metadata>
  <defs
     id="defs3126" />
  <sodipodi:namedview
     pagecolor="#ffffff"
     bordercolor="#666666"
     borderopacity="1"
     objecttolerance="10"
     gridtolerance="10"
     guidetolerance="10"
     inkscape:pageopacity="0"
     inkscape:pageshadow="2"
     inkscape:window-width="1440"
     inkscape:window-height="848"
     id="namedview3124"
     showgrid="false"
     fit-margin-top="0"
     fit-margin-left="0"
     fit-margin-right="0"
     fit-margin-bottom="0"
     inkscape:zoom="2.4537816"
     inkscape:cx="258.51384"
     inkscape:cy="-28.143339"
     inkscape:window-x="0"
     inkscape:window-y="31"
     inkscape:window-maximized="1"
     inkscape:current-layer="svg3106">
    <inkscape:grid
       type="xygrid"
       id="grid3112"
       empspacing="5"
       visible="true"
       enabled="true"
       snapvisiblegridlinesonly="true"
       originx="160.79809px"
       originy="1.4154013px" />
  </sodipodi:namedview>
  <path
     d="m 8.680313,0.6067828 108.793977,0 0,68.3334092 -108.793977,0 0,-68.3334092 z"
     id="path4"
     inkscape:connector-curvature="0"
     style="fill:#ffffff" />
  <path
     d="m 95.630069,5.664359 c 3.389625,-2.7018715 7.768341,-4.6125091 12.174061,-3.8572534 3.71342,0.6248979 7.48083,2.944635 8.64956,6.6805004 1.07909,2.629929 0.71473,5.552078 0.32837,8.285415 -1.01165,5.062065 -3.09317,9.827436 -5.38131,14.430949 -0.46755,-0.18882 -0.93518,-0.377651 -1.39822,-0.570944 2.17146,-4.333793 4.14507,-8.820404 5.19696,-13.576787 0.61597,-3.200867 0.84061,-6.743421 -0.86772,-9.6655642 C 112.49313,4.8146802 109.40462,3.2457021 106.24428,3.1737757 102.48125,2.9669753 98.979321,4.882111 96.142659,7.1838778 90.559051,11.940224 86.697261,18.445398 84.157318,25.260749 c -1.21831,3.49759 -2.229794,7.166029 -2.081438,10.906379 0.08075,2.980584 0.912555,5.880372 1.99161,8.640634 -0.350799,0.130417 -1.05665,0.391098 -1.407267,0.521419 -1.038563,-2.787296 -1.928617,-5.686951 -2.045576,-8.676532 -0.265118,-4.999126 1.25002,-9.894856 3.142451,-14.462401 2.701978,-6.262401 6.523226,-12.2101084 11.872971,-16.525889 z"
     id="path6"
     inkscape:connector-curvature="0"
     style="fill:#000000" />
  <path
     d="m 17.347861,4.3066713 c 3.767332,-2.5130528 8.806919,-1.6498949 12.327005,0.9036223 4.981137,3.3492366 8.406796,8.4517704 11.301965,13.6037464 -0.440566,0.256237 -0.885643,0.512503 -1.33069,0.764268 C 36.930774,14.597142 33.608516,9.7328866 28.865631,6.482552 26.055879,4.4864884 22.198645,3.4480102 18.98877,5.1158787 c -2.68838,1.5689951 -4.9317,4.0640491 -5.862285,7.0806083 -1.411624,4.486614 -0.431583,9.359884 1.371156,13.585769 2.405162,5.561068 6.239935,10.43432 10.789484,14.39494 3.91119,3.380637 8.56866,6.082656 13.711647,6.981805 -0.08992,0.364075 -0.274243,1.092348 -0.364139,1.456581 -7.754964,-1.411793 -14.305065,-6.473736 -19.317669,-12.340561 -4.666468,-5.61502 -8.384343,-12.533795 -8.375357,-20.001013 0.08545,-2.877186 0.88564,-5.785856 2.55352,-8.1595461 0.962045,-1.55998 2.499541,-2.6209355 3.852734,-3.8077906 z"
     id="path8"
     inkscape:connector-curvature="0"
     style="fill:#000000" />
  <path
     d="m 37.681551,22.001431 c 5.884761,-1.919633 12.021291,-3.394187 18.252214,-3.259331 8.460713,0.278725 16.912606,0.804726 25.377798,1.038502 -0.0096,0.377615 -0.03213,1.14187 -0.04522,1.519503 -4.414704,-0.220282 -8.8339,-0.305698 -13.248494,-0.575423 C 62.771294,20.607781 57.529575,20.05482 52.278643,20.315565 44.258419,21.0933 36.449529,23.565901 29.26554,27.175882 c -2.652409,1.339701 -5.093542,3.03006 -7.467222,4.810326 -0.296589,-0.382128 -0.588803,-0.759774 -0.885516,-1.141903 4.90024,-4.082013 10.793996,-6.738921 16.76867,-8.842874 z"
     id="path10"
     inkscape:connector-curvature="0"
     style="fill:#000000" />
  <path
     d="m 88.684265,21.210217 c 6.132025,1.083425 11.567225,4.558531 15.999935,8.811396 5.71396,5.498137 10.34449,12.556395 11.54487,20.51347 0.65629,4.75203 -0.57542,10.065664 -4.29783,13.311656 -2.39185,2.602851 -6.10064,3.776263 -9.55329,2.953462 -5.277802,-1.479064 -9.260999,-5.632863 -12.371878,-9.957651 -1.429514,-1.807476 -2.423205,-3.893251 -3.654872,-5.830972 0.427012,-0.260494 0.858498,-0.525996 1.294626,-0.791013 2.944696,5.29114 6.51859,10.533162 11.778543,13.756569 2.562571,1.438518 5.772391,2.243208 8.537251,0.862885 3.43009,-1.645396 5.98814,-5.057448 6.64901,-8.815713 0.98016,-5.003652 -0.70139,-10.083797 -2.98061,-14.502892 -3.79892,-6.954741 -9.54415,-12.960871 -16.606761,-16.624799 -2.104013,-1.078957 -4.369892,-1.793755 -6.685237,-2.229845 0.08557,-0.364138 0.256493,-1.092421 0.346243,-1.456553 z"
     id="path12"
     inkscape:connector-curvature="0"
     style="fill:#000000" />
  <path
     d="m 43.274108,24.964041 c 0.355146,-0.107876 1.060961,-0.328163 1.41612,-0.43607 1.717325,4.360737 2.679377,9.162073 1.721825,13.819533 -1.506035,7.898897 -5.156485,15.383923 -10.317455,21.54291 -3.021056,3.457132 -6.702971,6.658134 -11.248043,7.835999 -4.45066,1.281106 -9.611632,-0.18436 -12.610208,-3.749289 -1.865681,-2.517697 -2.3062518,-5.830894 -1.955595,-8.887766 0.64737,-5.857922 3.142435,-11.284177 5.655485,-16.544057 0.44958,0.233795 0.894638,0.46306 1.344183,0.696823 -2.558006,5.286752 -5.071045,10.775925 -5.588043,16.701267 -0.17083,2.229778 0.193313,4.517919 1.294739,6.482613 2.486089,3.501955 7.278407,5.066503 11.387409,3.884207 4.41469,-1.159835 7.943753,-4.333822 10.852413,-7.71439 4.877761,-5.956753 8.348365,-13.136218 9.746505,-20.724858 0.917104,-4.360743 -0.157347,-8.820412 -1.699335,-12.906922 z"
     id="path14"
     inkscape:connector-curvature="0"
     style="fill:#000000" />
  <path
     d="m 99.186171,42.092316 c 2.153259,-1.380103 4.234779,-2.881661 6.374619,-4.288782 0.27438,0.413591 0.54862,0.827194 0.82725,1.240773 -2.32426,1.506064 -4.50897,3.227882 -6.914124,4.59448 -3.174072,1.236411 -6.172395,2.994115 -9.544368,3.632476 -2.405067,0.494469 -4.747191,1.375632 -7.219949,1.447718 -2.791619,0.188634 -5.578949,0.50348 -8.379692,0.444935 -5.705094,-0.314722 -11.405506,0.260685 -17.11042,0.224828 -3.412123,-0.283056 -6.815335,-0.647414 -10.23201,-0.827026 0.0089,-0.368788 0.0315,-1.101538 0.04499,-1.470204 3.852749,0.121351 7.674038,0.692327 11.526784,0.845035 4.958679,-0.152708 9.917317,-0.449284 14.885037,-0.355009 3.650452,0.274128 7.30079,-0.233748 10.93779,-0.521451 2.652488,-0.638428 5.336237,-1.182399 7.94382,-1.991691 2.292805,-0.970935 4.603374,-1.910558 6.860158,-2.976082 z"
     id="path16"
     inkscape:connector-curvature="0"
     style="fill:#000000" />
  <path
     d="m 162.39822,-2.2271964e-6 108.79399,0 0,68.1105262271964 -95.96727,0 c 5.86025,-0.260562 10.76969,-4.136902 14.44034,-8.406375 5.40314,-6.422495 9.18807,-14.275811 10.61427,-22.558775 0.90053,-4.543745 -0.26513,-9.15606 -1.80104,-13.425545 -0.49368,0.146285 -0.98737,0.292561 -1.48106,0.438842 1.43992,3.954064 2.62386,8.228115 1.82389,12.456451 -1.07879,6.911593 -4.04548,13.443874 -8.02239,19.162391 -2.99414,4.141493 -6.69678,8.072706 -11.55595,9.960589 -3.83521,1.531308 -8.5481,0.937056 -11.63363,-1.892495 -2.77471,-2.230741 -3.79408,-6.006481 -3.62952,-9.444032 0.11885,-5.764256 2.59642,-11.395892 6.52765,-15.587717 -0.40228,-0.319981 -0.79997,-0.639963 -1.20223,-0.959951 -4.36547,4.667148 -6.87963,10.984556 -6.90705,17.370445 l 0,-55.2243542271964 z"
     id="path3108"
     inkscape:connector-curvature="0"
     style="fill:#ffffff" />
  <path
     d="m 253.61145,2.1255976 c 2.95759,-1.60904953 6.50022,-2.07987913 9.75033,-1.1610802 1.74159,0.7588154 3.67067,1.3759211 4.75861,3.0581206 1.68674,1.426207 1.88336,3.702655 2.45011,5.6956856 0.48909,6.9481834 -1.62727,13.7729544 -4.31061,20.0994654 -1.47191,2.943834 -2.79753,6.148234 -5.36653,8.324114 -4.31061,4.694616 -10.49999,7.012206 -16.4562,8.858962 -0.1097,-0.36573 -0.33374,-1.101653 -0.448,-1.467336 6.58251,-1.883378 13.2244,-4.822652 17.56245,-10.317186 4.10946,-6.303653 6.59163,-13.631248 7.52874,-21.077689 0.036,-2.806702 0.0823,-5.828255 -1.41711,-8.310398 -1.6456,-2.473013 -4.6214,-3.7072244 -7.51954,-3.8352195 -3.34616,-0.07772 -6.44538,1.5496305 -9.01435,3.5700905 -3.45126,2.779269 -6.10261,6.399647 -8.38814,10.16629 -0.4251,-0.283412 -0.85028,-0.562254 -1.27535,-0.836525 3.081,-5.0237184 6.82019,-9.983444 12.14559,-12.7672944 z"
     id="path3110"
     inkscape:connector-curvature="0"
     style="fill:#000000" />
  <path
     d="m 169.34642,4.237484 c 2.19873,-2.2261643 5.5494,-3.0398288 8.58009,-2.4501554 3.78036,0.7862454 6.9619,3.2638184 9.58574,5.9973864 2.88442,2.989551 5.14715,6.504785 7.1219,10.13887 -0.42969,0.265124 -0.85938,0.530257 -1.28907,0.795386 -2.16217,-3.867226 -4.5529,-7.688722 -7.81671,-10.733123 -2.66043,-2.605574 -6.06138,-4.918591 -9.93316,-4.88202 -3.0444,0.100567 -5.58141,2.17131 -7.39616,4.466041 -2.78842,3.693508 -3.03984,8.671522 -1.94275,13.023281 1.77361,6.934468 6.02938,13.018709 11.16738,17.900727 4.26947,3.926653 9.38004,7.231594 15.18087,8.21899 -0.096,0.507399 -0.19198,1.010208 -0.29255,1.517596 -9.55834,-1.855844 -17.35676,-8.753784 -22.70503,-16.607061 -3.7438,-5.732255 -6.52308,-12.739868 -5.07401,-19.6652 0.7314,-2.99412 2.34957,-5.82825 4.81346,-7.720718 z"
     id="path3112"
     inkscape:connector-curvature="0"
     style="fill:#000000" />
  <path
     d="m 207.83113,16.392245 c 3.02158,-0.356555 6.04766,-0.717675 9.08295,-0.982809 6.65104,-0.064 13.34326,0.937091 19.6103,3.186113 8.79498,3.026113 16.60711,8.241825 23.96671,13.823237 -0.29717,0.415964 -0.59884,0.831949 -0.89599,1.247925 -9.26575,-7.126461 -19.54631,-13.516962 -31.18909,-15.72484 -4.94605,-0.895956 -10.03834,-1.398778 -15.03459,-0.658254 -2.43642,0.370268 -4.96889,0.274272 -7.29561,1.202224 -3.47866,1.24336 -7.21789,1.865041 -10.42228,3.784928 -2.61471,1.398785 -5.33457,2.591856 -7.91728,4.040924 -3.61123,2.409005 -7.16761,4.900297 -10.74684,7.355018 -0.29255,-0.438828 -0.58511,-0.873097 -0.87765,-1.311922 3.84892,-2.482155 7.52415,-5.233999 11.38222,-7.697864 3.42838,-1.727904 6.85218,-3.474096 10.308,-5.138003 3.32782,-1.08794 6.66935,-2.15302 10.02915,-3.126677 z"
     id="path3114"
     inkscape:connector-curvature="0"
     style="fill:#000000" />
  <path
     d="m 196.99745,24.158671 c 0.49369,-0.146281 0.98738,-0.292557 1.48106,-0.438842 1.53591,4.269485 2.70157,8.8818 1.80104,13.425545 -1.4262,8.282964 -5.21113,16.13628 -10.61427,22.558775 -3.67065,4.269473 -8.58009,8.145813 -14.44034,8.406375 l -1.50391,0 c -4.05921,-0.52569 -8.08642,-2.815837 -9.85546,-6.623616 -0.93709,-1.572515 -1.11994,-3.428404 -1.46735,-5.192861 l 0,-1.069695 c 0.0274,-6.385889 2.54158,-12.703297 6.90705,-17.370445 0.40226,0.319988 0.79995,0.63997 1.20223,0.959951 -3.93123,4.191825 -6.4088,9.823461 -6.52765,15.587717 -0.16456,3.437551 0.85481,7.213291 3.62952,9.444032 3.08553,2.829551 7.79842,3.423803 11.63363,1.892495 4.85917,-1.887883 8.56181,-5.819096 11.55595,-9.960589 3.97691,-5.718517 6.9436,-12.250798 8.02239,-19.162391 0.79997,-4.228336 -0.38397,-8.502387 -1.82389,-12.456451 z"
     id="path3116"
     inkscape:connector-curvature="0"
     style="fill:#000000" />
  <path
     d="m 237.16893,23.902679 c 0.36117,0.09601 1.07882,0.287986 1.44,0.383982 -1.44911,5.709401 -2.4502,11.875918 -0.48917,17.59905 2.44556,6.861308 6.61907,13.110118 11.93535,18.07901 3.54261,3.154097 8.45207,6.244165 13.31586,4.333458 1.72786,-1.074205 3.44199,-2.38617 4.44315,-4.205523 1.94272,-3.199823 1.97016,-7.20411 1.00566,-10.72856 -0.88682,-3.611246 -2.70159,-6.897889 -4.71292,-9.992557 0.31544,-0.21484 0.93712,-0.649104 1.24792,-0.863949 3.75301,5.590515 6.82939,12.515898 5.07861,19.345237 -0.83651,3.40549 -3.3827,5.997392 -6.26711,7.816677 -1.15652,0.333726 -2.34045,0.571396 -3.51976,0.804554 -3.33696,-0.0056 -6.50481,-1.435354 -9.16985,-3.378144 -5.31165,-4.008899 -9.3846,-9.448609 -12.49757,-15.290564 -1.37592,-2.879856 -2.71068,-5.841976 -3.15868,-9.028067 -0.78621,-4.982577 0.064,-10.052009 1.34851,-14.874604 z"
     id="path3118"
     inkscape:connector-curvature="0"
     style="fill:#000000" />
  <path
     d="m 200.34813,48.166478 c 11.41422,2.824995 23.37701,1.59075 34.70435,-1.037656 0.0868,0.361162 0.26968,1.08794 0.35661,1.449102 -11.54227,2.706114 -23.75647,3.963149 -35.39009,1.060515 0.0823,-0.370319 0.24684,-1.106265 0.32913,-1.471961 z"
     id="path3120"
     inkscape:connector-curvature="0"
     style="fill:#000000" />
  <path
     d="m 162.39822,56.294047 c 0.34741,1.764457 0.53026,3.620358 1.46735,5.192861 1.76904,3.80779 5.79625,6.097926 9.85546,6.623616 l -11.32281,0 0,-11.816477 z"
     id="path3122"
     inkscape:connector-curvature="0"
     style="fill:#ffffff" />
</svg>
