<?xml version="1.0" encoding="UTF-8" standalone="no"?>
<!-- Created with Inkscape (http://www.inkscape.org/) -->

<svg
   xmlns:dc="http://purl.org/dc/elements/1.1/"
   xmlns:cc="http://creativecommons.org/ns#"
   xmlns:rdf="http://www.w3.org/1999/02/22-rdf-syntax-ns#"
   xmlns:svg="http://www.w3.org/2000/svg"
   xmlns="http://www.w3.org/2000/svg"
   xmlns:sodipodi="http://sodipodi.sourceforge.net/DTD/sodipodi-0.dtd"
   xmlns:inkscape="http://www.inkscape.org/namespaces/inkscape"
   id="svg2"
   version="1.1"
   inkscape:version="0.48.4 r9939"
   width="200"
   height="87.084938"
   xml:space="preserve"
   sodipodi:docname="realeightknot.svg"><metadata
     id="metadata8"><rdf:RDF><cc:Work
         rdf:about=""><dc:format>image/svg+xml</dc:format><dc:type
           rdf:resource="http://purl.org/dc/dcmitype/StillImage" /><dc:title /></cc:Work></rdf:RDF></metadata><defs
     id="defs6" /><sodipodi:namedview
     pagecolor="#ffffff"
     bordercolor="#666666"
     borderopacity="1"
     objecttolerance="10"
     gridtolerance="10"
     guidetolerance="10"
     inkscape:pageopacity="0"
     inkscape:pageshadow="2"
     inkscape:window-width="1440"
     inkscape:window-height="848"
     id="namedview4"
     showgrid="false"
     inkscape:zoom="1.5183333"
     inkscape:cx="276.31724"
     inkscape:cy="119.74179"
     inkscape:window-x="0"
     inkscape:window-y="31"
     inkscape:window-maximized="1"
     inkscape:current-layer="g10"
     fit-margin-top="0"
     fit-margin-left="0"
     fit-margin-right="0"
     fit-margin-bottom="0" /><g
     id="g10"
     inkscape:groupmode="layer"
     inkscape:label="achtknoten"
     transform="matrix(1.25,0,0,-1.25,-24.999999,117.34315)"><g
       id="g12"
       transform="matrix(0.22030978,0,0,0.22030978,11.875933,14.97872)"><path
         d="m 583.273,263.688 c 15.145,18.296 35.09,32.39 59.684,42.289 14.098,5.55 37.191,11.996 69.133,19.046 3.152,-1.199 8.25,-1.949 15.148,-2.402 l 16.645,-1.348 c 12.148,-2.25 18.148,-9.449 18.148,-21.296 2.25,-7.946 1.047,-14.997 -3.75,-21.145 -4.199,-5.246 -9.898,-8.695 -16.945,-10.348 -5.25,2.551 -12.297,3.75 -21.145,3.45 l -19.496,0.75 c -2.851,-1.5 -9.449,-3.149 -19.644,-5.098 -8.399,-1.5 -14.547,-4.199 -18.598,-8.098 11.098,-7.648 -0.449,-9.148 -34.64,-4.5 l -33.594,5.399 c -10.496,2.101 -14.094,3.148 -10.946,3.301"
         style="fill:#333333;fill-opacity:1;fill-rule:evenodd;stroke:none"
         id="path14"
         inkscape:connector-curvature="0" /><path
         d="m 537.684,148.664 33.589,29.395 c 13.95,12.445 24.747,23.543 32.395,32.992 5.098,2.398 -0.301,4.347 -16.348,5.699 l -43.039,1.648 -16.343,-13.199 c -5.25,-3.898 -10.801,-8.847 -16.649,-14.695 l 13.797,-31.043 c 4.348,-9.598 8.547,-13.195 12.598,-10.797"
         style="fill:#333333;fill-opacity:1;fill-rule:evenodd;stroke:none"
         id="path16"
         inkscape:connector-curvature="0" /><path
         d="m 496.145,269.086 21.593,0.301 c 26.543,4.496 52.489,4.797 77.832,0.75 8.246,1.199 19.496,0.597 33.442,-1.949 11.996,-2.25 22.496,-5.102 31.343,-8.551 10.047,-3.598 18.747,-9.598 26.243,-17.844 4.05,-4.949 9.746,-13.496 17.097,-25.793 13.946,-15.746 19.946,-40.043 17.844,-73.035 -1.051,-14.246 -3.598,-27.293 -7.648,-39.442 C 709.543,90.93 703.992,81.629 697.547,75.48 685.699,63.035 671.152,54.035 654.207,48.188 c -17.398,-6.149 -34.644,-7.797 -51.891,-4.95 -15.144,0.301 -27.14,2.102 -35.839,5.551 l -16.497,8.399 c -9.449,3.449 -17.246,8.398 -23.394,15.144 l -16.645,19.496 c -11.699,17.246 -17.847,26.543 -18.445,28.043 -6.449,9.449 -15.898,27.145 -28.344,53.086 -10.949,23.098 -19.047,38.391 -24.445,45.891 l -12.297,0.601 c -23.996,-2.25 -45.14,-2.25 -63.586,0.149 l -39.289,-1.95 -20.996,2.399 -18.594,-4.047 -18.297,1.496 -25.644,-1.797 c -10.496,-1.051 -18.445,0.301 -23.695,3.75 -4.496,-1.5 -11.996,-2.25 -22.344,-2.25 l -23.242,1.649 c -23.246,-2.848 -39.141,-3 -47.993,-0.602 L 96.938,216 83.141,219.598 c -23.094,-4.051 -36.59,-3.75 -40.34,0.898 -3.598,6.899 -5.547,14.848 -5.848,23.844 -0.449,9.449 1.051,17.848 4.649,25.195 1.648,3.75 8.847,5.25 21.593,4.649 11.098,-0.598 19.196,-1.95 24.297,-3.899 l 14.547,2.102 c 5.399,0.297 11.246,-0.602 17.395,-2.551 l 25.941,2.551 25.945,-3.301 c 3,2.551 21.895,3.75 56.836,3.75 l 58.489,-2.102 17.996,1.2 24.441,-1.2 c 3,1.051 19.496,1.352 49.488,0.903 l 103.028,-0.903 14.547,-1.648 z m 168.41,-132.27 c 2.398,15.149 1.797,29.543 -1.801,43.34 -6.301,9.149 -16.645,18.145 -30.895,26.696 -19.492,1.648 -39.14,5.097 -58.933,10.347 -10.649,-1.652 -33.895,-1.949 -69.883,-0.902 3.148,-5.695 6.898,-15.594 11.098,-29.543 2.699,-3.149 6.297,-8.547 10.945,-16.195 4.5,-7.95 7.5,-13.645 8.848,-17.395 10.648,-11.25 17.695,-21.297 20.996,-29.992 4.949,-4.352 11.547,-8.699 19.496,-13.047 11.394,-5.699 18.144,-9.301 20.094,-10.801 4.949,0.153 12.898,-0.597 23.843,-2.547 l 13.649,3.899 11.847,4.051 c 4.2,4.046 11.098,14.695 20.696,32.089"
         style="fill:#333333;fill-opacity:1;fill-rule:evenodd;stroke:none"
         id="path18"
         inkscape:connector-curvature="0" /><path
         d="M 495.242,115.074 C 481.445,103.375 471.848,95.727 466.301,92.277 454.453,84.629 440.508,78.93 424.16,75.184 c -8.398,-3.75 -13.648,-6 -15.746,-6.602 L 385.77,65.734 c -36.743,-3.75 -70.332,1.5 -100.778,15.746 -13.195,6.149 -24.441,15.598 -33.742,28.645 -4.648,6.297 -10.945,17.996 -19.195,34.941 -12.746,14.997 -19.946,40.039 -21.594,74.981 l 61.336,-2.399 c -0.899,-12.746 0.301,-25.644 3.75,-38.691 3.746,-13.496 9.598,-25.043 17.246,-34.793 7.945,-9.598 19.043,-16.793 33.289,-21.445 13.949,-4.649 29.543,-6.297 46.641,-5.098 38.242,2.551 71.082,16.649 98.527,42.442 5.848,-5.848 9.598,-10.2 11.098,-12.899 3.297,-5.547 7.648,-16.195 12.894,-32.09"
         style="fill:#333333;fill-opacity:1;fill-rule:evenodd;stroke:none"
         id="path20"
         inkscape:connector-curvature="0" /><path
         d="m 748.234,307.477 c -2.55,0.449 -4.8,2.097 -6.898,4.8 -1.949,2.547 -4.352,4.047 -7.199,4.649 3.148,2.097 6.597,2.097 10.648,0 3.899,-2.102 5.098,-5.25 3.449,-9.449"
         style="fill:#ffffff;fill-opacity:1;fill-rule:evenodd;stroke:none"
         id="path22"
         inkscape:connector-curvature="0" /><path
         d="m 755.43,288.43 c -4.348,-3.598 -9.598,-4.348 -15.446,-2.399 -3.148,2.25 -6.296,3 -9.597,2.399 l 2.398,11.25 c 0.903,5.246 0.903,8.996 0.153,11.246 5.546,-1.801 10.648,-4.348 14.996,-7.649 6.449,-4.648 8.996,-9.597 7.496,-14.847"
         style="fill:#ffffff;fill-opacity:1;fill-rule:evenodd;stroke:none"
         id="path24"
         inkscape:connector-curvature="0" /><path
         d="m 714.941,317.676 c 5.848,-12 5.848,-23.696 0,-34.942 3.45,7.946 3.45,19.493 0,34.942"
         style="fill:#ffffff;fill-opacity:1;fill-rule:evenodd;stroke:none"
         id="path26"
         inkscape:connector-curvature="0" /><path
         d="m 724.391,300.879 c 0.746,5.848 0.297,11.098 -1.352,15.445 4.949,-4.949 4.949,-14.695 0,-29.543 l 1.352,14.098"
         style="fill:#ffffff;fill-opacity:1;fill-rule:evenodd;stroke:none"
         id="path28"
         inkscape:connector-curvature="0" /><path
         d="m 44.75,260.836 c 3,-2.246 8.848,-8.395 17.695,-18.445 7.649,-8.848 14.547,-14.696 20.696,-17.844 l -20.696,-1.649 c -6.148,0.297 -10.347,2.247 -12.445,5.997 -2.25,3.449 -3.75,8.398 -4.348,15.148 l -0.902,16.793"
         style="fill:#ffffff;fill-opacity:1;fill-rule:evenodd;stroke:none"
         id="path30"
         inkscape:connector-curvature="0" /><path
         d="m 370.172,262.789 c 15.449,-10.199 27.746,-23.098 36.742,-38.691 -14.547,-2.403 -28.043,1.797 -40.641,12.445 l -15.296,14.695 c -6.446,6.149 -11.997,10.649 -16.645,13.797 4.199,2.551 10.797,3.153 19.797,1.949 6.598,-0.898 11.996,-2.246 16.043,-4.195"
         style="fill:#ffffff;fill-opacity:1;fill-rule:evenodd;stroke:none"
         id="path32"
         inkscape:connector-curvature="0" /><path
         d="m 353.828,238.645 c 6.746,-6.75 12.445,-11.547 16.797,-14.547 l -15,-0.45 c -11.996,0.598 -23.395,5.997 -34.039,16.043 l -13.199,13.649 c -5.399,5.699 -10.047,10.047 -14.094,13.195 15.145,3.153 29.391,-0.898 43.039,-12.297 l 16.496,-15.593"
         style="fill:#ffffff;fill-opacity:1;fill-rule:evenodd;stroke:none"
         id="path34"
         inkscape:connector-curvature="0" /><path
         d="m 275.547,237.293 c 7.047,-6.449 13.348,-10.797 18.746,-13.195 -10.648,-3 -20.098,-3 -28.645,0 -3.3,1.949 -10.949,8.695 -23.093,19.945 -10.95,10.348 -20.098,17.246 -27.145,20.695 13.649,5.246 27.594,1.649 42.141,-10.949 l 17.996,-16.496"
         style="fill:#ffffff;fill-opacity:1;fill-rule:evenodd;stroke:none"
         id="path36"
         inkscape:connector-curvature="0" /><path
         d="m 129.332,265.785 c 13.945,4.649 28.344,1.653 43.188,-8.695 7.05,-4.649 18.746,-15.899 35.39,-33.442 -14.543,-3.152 -28.793,1.047 -42.887,12.747 l -17.546,15.746 c -6.899,6.297 -12.899,10.797 -18.145,13.644"
         style="fill:#ffffff;fill-opacity:1;fill-rule:evenodd;stroke:none"
         id="path38"
         inkscape:connector-curvature="0" /><path
         d="m 147.777,239.844 16.793,-14.399 c -2.398,-2.847 -7.496,-3.898 -15.445,-3.449 -8.547,0.449 -17.996,6 -28.043,16.945 l -12.894,13.95 c -5.25,5.246 -10.2,9.297 -15.149,12.144 11.399,4.801 23.844,1.653 37.492,-9.597 l 17.246,-15.594"
         style="fill:#ffffff;fill-opacity:1;fill-rule:evenodd;stroke:none"
         id="path40"
         inkscape:connector-curvature="0" /><path
         d="m 47.148,266.984 c 13.95,4.653 28.344,1.653 43.192,-8.847 6.898,-4.946 18.594,-16.496 35.242,-34.34 -13.648,-5.551 -27.742,-2.102 -42.141,10.648 L 65.445,251.84 c -7.047,7.047 -13.195,12.148 -18.297,15.144"
         style="fill:#ffffff;fill-opacity:1;fill-rule:evenodd;stroke:none"
         id="path42"
         inkscape:connector-curvature="0" /><path
         d="m 193.367,250.039 c -7.051,6.75 -13.199,11.547 -18.449,14.399 13.949,4.648 28.344,1.8 43.043,-8.25 6.445,-4.649 18.293,-15.594 35.391,-32.993 -13.649,-5.398 -27.594,-1.949 -42.141,10.348 l -17.844,16.496"
         style="fill:#ffffff;fill-opacity:1;fill-rule:evenodd;stroke:none"
         id="path44"
         inkscape:connector-curvature="0" /><path
         d="m 284.844,262.488 c 20.246,-14.847 32.844,-27.445 38.09,-37.64 -12.746,-2.403 -24.895,1.648 -36.141,11.996 l -14.098,14.394 c -5.699,6.149 -10.496,10.649 -14.547,13.649 6.75,4.347 15.598,3.449 26.696,-2.399"
         style="fill:#ffffff;fill-opacity:1;fill-rule:evenodd;stroke:none"
         id="path46"
         inkscape:connector-curvature="0" /><path
         d="m 476.047,269.535 c -41.688,-2.25 -61.633,-2.398 -59.984,-0.75 -9.297,16.649 -24.145,28.043 -44.54,34.344 -15.148,4.648 -28.195,5.699 -39.14,3.449 -25.344,-5.851 -42.442,-18.297 -50.988,-37.043 l -62.387,2.699 c 6.449,16.196 12,27.895 16.797,34.942 9.449,14.547 21.593,24.297 36.14,29.242 6.75,6.449 14.098,10.949 22.348,13.199 l 15.445,1.949 c 4.95,3.301 17.996,4.797 38.989,4.649 11.55,3.598 26.695,2.098 45.441,-4.649 17.547,-6.148 29.094,-13.046 34.941,-20.695 7.496,-3.898 15.746,-11.547 24.594,-22.793 9.449,-12.148 16.945,-24.894 22.344,-38.543"
         style="fill:#333333;fill-opacity:1;fill-rule:evenodd;stroke:none"
         id="path48"
         inkscape:connector-curvature="0" /><path
         d="m 461.652,201.602 c 0.598,7.949 5.246,26.242 13.797,55.039 10.645,-10.5 14.246,-24.746 10.946,-42.891 -1.047,-6.301 -3.149,-13.949 -6.297,-22.945 l -7.2,-21.297 c -4.648,3.152 -7.648,7.801 -8.847,14.097 l -2.399,17.997"
         style="fill:#ffffff;fill-opacity:1;fill-rule:evenodd;stroke:none"
         id="path50"
         inkscape:connector-curvature="0" /><path
         d="m 462.25,238.344 c -4.949,-14.246 -7.797,-23.996 -8.547,-29.543 -11.246,9.746 -14.394,23.242 -9.297,40.488 l 6.746,21.746 c 2.551,8.547 3.301,15.895 2.551,22.043 4.199,-1.348 7.199,-4.797 8.848,-10.496 2.25,-7.348 4.051,-11.848 5.398,-13.496 0.449,-8.547 -1.347,-18.746 -5.699,-30.742"
         style="fill:#ffffff;fill-opacity:1;fill-rule:evenodd;stroke:none"
         id="path52"
         inkscape:connector-curvature="0" /><path
         d="m 436.758,240.293 c -9.149,9.297 -12.149,22.344 -9.149,38.992 l 3.75,20.992 c 1.051,8.25 0.45,15.598 -1.648,22.047 9.144,-3.601 14.543,-10.797 16.496,-21.746 1.648,-8.996 0.898,-19.344 -1.953,-31.043 -4.797,-18.144 -7.348,-27.894 -7.496,-29.242"
         style="fill:#ffffff;fill-opacity:1;fill-rule:evenodd;stroke:none"
         id="path54"
         inkscape:connector-curvature="0" /><path
         d="m 419.363,273.133 c -6.148,7.199 -10.199,18.597 -12.449,34.344 -2.25,16.945 -5.25,28.644 -9.148,34.941 15.746,-6.148 24.746,-14.547 27.293,-25.195 1.351,-6.149 0.902,-13.645 -1.649,-22.645 -3,-10.047 -4.347,-17.246 -4.047,-21.445"
         style="fill:#ffffff;fill-opacity:1;fill-rule:evenodd;stroke:none"
         id="path56"
         inkscape:connector-curvature="0" /><path
         d="m 400.617,295.781 c -13.347,4.946 -22.644,13.496 -27.894,25.641 l -6.598,14.996 c -2.852,5.551 -6.449,10.199 -10.797,13.797 2.547,1.949 6.445,2.551 11.996,2.101 4.797,-0.449 8.996,-1.648 12.446,-3.3 8.847,-6.598 14.546,-14.246 17.246,-22.946 1.351,-4.797 2.55,-14.843 3.601,-30.289"
         style="fill:#ffffff;fill-opacity:1;fill-rule:evenodd;stroke:none"
         id="path58"
         inkscape:connector-curvature="0" /><path
         d="m 370.324,309.875 c -10.047,0.449 -19.797,6 -29.242,16.496 l -11.848,12.297 c -4.8,4.051 -10.199,6.898 -16.046,8.25 5.699,5.547 15.445,6.746 29.242,3.598 9.449,-4.797 15.597,-10.047 18.746,-15.594 l 9.148,-25.047"
         style="fill:#ffffff;fill-opacity:1;fill-rule:evenodd;stroke:none"
         id="path60"
         inkscape:connector-curvature="0" /><path
         d="m 321.285,315.723 c -13.648,9.449 -27.293,15.898 -41.242,19.648 2.25,4.649 9.598,7.649 22.195,8.695 8.551,-0.449 16.2,-3.898 23.246,-10.347 l 17.844,-20.242 c -8.996,-1.653 -16.344,-0.903 -22.043,2.246"
         style="fill:#ffffff;fill-opacity:1;fill-rule:evenodd;stroke:none"
         id="path62"
         inkscape:connector-curvature="0" /><path
         d="m 292.043,293.078 c -4.5,-5.547 -14.098,-8.394 -28.793,-8.547 l -17.996,0 -15.899,-0.898 8.25,11.398 c 3.149,3.746 7.047,6.297 11.399,7.797 6.746,1.649 14.094,0.899 22.344,-1.949 l 20.695,-7.801"
         style="fill:#ffffff;fill-opacity:1;fill-rule:evenodd;stroke:none"
         id="path64"
         inkscape:connector-curvature="0" /><path
         d="m 268.949,273.133 -30.894,1.953 42.738,5.695 c -0.75,-2.547 -2.246,-4.199 -4.496,-5.097 l -7.348,-2.551"
         style="fill:#ffffff;fill-opacity:1;fill-rule:evenodd;stroke:none"
         id="path66"
         inkscape:connector-curvature="0" /><path
         d="m 252,124.219 c -6.297,5.551 -10.047,10.949 -11.395,16.047 -0.902,4.8 0,10.797 2.7,17.996 L 264,189.605 c 2.547,0.45 4.648,-4.5 6.148,-14.996 0.598,-6.148 -2.101,-14.097 -7.949,-23.695 C 255.75,140.566 252.301,131.719 252,124.219"
         style="fill:#ffffff;fill-opacity:1;fill-rule:evenodd;stroke:none"
         id="path68"
         inkscape:connector-curvature="0" /><path
         d="m 250.352,182.555 c -9.598,-12.446 -14.997,-22.492 -16.047,-29.992 -5.246,3.75 -8.098,8.699 -8.547,15.148 -0.149,5.547 1.347,10.797 4.797,15.894 3.449,4.95 8.55,10.2 15.297,15.747 l 17.996,13.496 C 264,204.449 259.5,194.402 250.352,182.555"
         style="fill:#ffffff;fill-opacity:1;fill-rule:evenodd;stroke:none"
         id="path70"
         inkscape:connector-curvature="0" /><path
         d="m 221.109,211.648 c 3,1.2 7.649,2.25 13.797,3 8.246,1.051 15.446,1.051 21.594,0 l -17.246,-11.847 c -9.149,-6.449 -14.848,-12.598 -16.945,-18.145 -4.801,7.348 -5.25,16.344 -1.2,26.992"
         style="fill:#ffffff;fill-opacity:1;fill-rule:evenodd;stroke:none"
         id="path72"
         inkscape:connector-curvature="0" /><path
         d="m 513.688,221.996 c -4.2,-0.148 -7.196,0.75 -9.145,2.852 -5.25,5.547 -11.25,17.093 -18.148,34.64 3.75,-4.347 16.195,-15.898 37.191,-34.64 -2.547,-1.95 -5.848,-2.852 -9.898,-2.852"
         style="fill:#ffffff;fill-opacity:1;fill-rule:evenodd;stroke:none"
         id="path74"
         inkscape:connector-curvature="0" /><path
         d="m 424.16,246.742 8.848,-22.644 -6.598,0 c -6.148,2.847 -13.945,9.297 -23.695,19.492 -10.945,11.25 -18.145,17.848 -21.594,20.098 l 13.195,1.199 11.547,-0.449 c 7.051,-1.649 13.047,-7.649 18.297,-17.696"
         style="fill:#ffffff;fill-opacity:1;fill-rule:evenodd;stroke:none"
         id="path76"
         inkscape:connector-curvature="0" /><path
         d="m 288.594,325.773 c 4.347,-1.949 13.347,-7.199 26.844,-16.046 -7.348,-7.348 -18.149,-8.848 -32.395,-4.801 l -17.695,4.5 -19.043,-0.75 c 1.199,4.347 4.195,8.547 8.996,12.297 3.75,3 7.496,5.097 11.097,6.148 7.047,2.399 14.547,1.949 22.196,-1.348"
         style="fill:#ffffff;fill-opacity:1;fill-rule:evenodd;stroke:none"
         id="path78"
         inkscape:connector-curvature="0" /><path
         d="m 743.133,275.383 -5.848,2.25 c -2.699,0.301 -4.5,1.199 -5.398,2.551 l 6.297,0.597 c 3.449,-0.449 5.101,-2.246 4.949,-5.398"
         style="fill:#ffffff;fill-opacity:1;fill-rule:evenodd;stroke:none"
         id="path80"
         inkscape:connector-curvature="0" /><path
         d="m 702.344,305.227 c 3.449,-3.75 4.5,-7.348 3.148,-10.649 -7.648,4.949 -19.644,9.149 -36.14,12.75 4.8,2.996 13.046,5.098 24.746,6.445 l 8.246,-8.546"
         style="fill:#ffffff;fill-opacity:1;fill-rule:evenodd;stroke:none"
         id="path82"
         inkscape:connector-curvature="0" /><path
         d="m 706.395,288.883 c -10.649,-11.848 -23.547,-15.297 -38.993,-10.348 l -18.894,7.496 c -7.5,2.852 -13.797,4.199 -18.746,4.051 2.847,6.598 11.398,10.797 25.492,12.445 7.051,-0.148 15.746,-1.949 26.094,-5.699 12.898,-4.496 21.297,-7.199 25.047,-7.945"
         style="fill:#ffffff;fill-opacity:1;fill-rule:evenodd;stroke:none"
         id="path84"
         inkscape:connector-curvature="0" /><path
         d="m 618.813,284.23 c 7.949,0.602 16.496,-0.75 25.945,-4.046 l 23.844,-8.547 c -7.497,-6.449 -18.446,-8.25 -32.84,-5.399 l -17.996,4.196 -18.297,1.203 c 3.75,7.347 10.199,11.547 19.344,12.593"
         style="fill:#ffffff;fill-opacity:1;fill-rule:evenodd;stroke:none"
         id="path86"
         inkscape:connector-curvature="0" /><path
         d="m 525.234,193.355 c 5.852,10.047 16.649,16.043 32.543,17.993 l 20.547,0.902 19.043,0.75 c -3.898,-5.551 -8.394,-10.648 -13.644,-15.297 -11.246,-6.898 -30.743,-8.398 -58.489,-4.348"
         style="fill:#ffffff;fill-opacity:1;fill-rule:evenodd;stroke:none"
         id="path88"
         inkscape:connector-curvature="0" /><path
         d="m 520.289,173.258 -17.848,3.148 c 7.348,6.899 17.395,10.199 30.442,10.051 l 17.547,-1.203 c 7.797,-0.746 14.398,-0.746 19.644,-0.297 -6.297,-10.348 -16.644,-15.148 -30.89,-14.398 l -18.895,2.699"
         style="fill:#ffffff;fill-opacity:1;fill-rule:evenodd;stroke:none"
         id="path90"
         inkscape:connector-curvature="0" /><path
         d="m 514.438,150.914 -17.696,4.348 -17.246,4.801 c 7.348,7.648 17.848,10.496 31.344,8.847 l 17.996,-3.148 18.297,-1.801 c -8.25,-10.348 -19.047,-14.695 -32.695,-13.047"
         style="fill:#ffffff;fill-opacity:1;fill-rule:evenodd;stroke:none"
         id="path92"
         inkscape:connector-curvature="0" /><path
         d="m 476.348,111.023 c -6.297,0.45 -13.196,2.7 -20.696,6.899 -8.847,4.949 -15.445,7.949 -19.793,8.996 7.946,8.25 17.543,11.398 28.793,9.301 l 16.344,-7.199 c 5.848,-2.551 10.949,-4.5 14.996,-5.7 l -8.996,-8.398 c -3.148,-2.25 -6.598,-3.449 -10.648,-3.899"
         style="fill:#ffffff;fill-opacity:1;fill-rule:evenodd;stroke:none"
         id="path94"
         inkscape:connector-curvature="0" /><path
         d="m 473.5,105.023 c -4.352,-6.746 -10.348,-9.894 -17.996,-9.445 -4.051,0.149 -9.899,1.949 -17.547,5.098 -9.449,8.699 -18.746,14.847 -28.043,18.445 11.547,4.649 22.496,4.5 32.543,-0.148 l 13.797,-7.051 c 6.148,-3.149 11.848,-5.547 17.246,-6.899"
         style="fill:#ffffff;fill-opacity:1;fill-rule:evenodd;stroke:none"
         id="path96"
         inkscape:connector-curvature="0" /><path
         d="m 420.113,83.73 c -5.699,3.297 -11.847,7.95 -18.597,13.797 l -18.145,15.746 c 9.746,3.45 20.844,1.649 33.141,-5.699 l 14.847,-9.148 c 5.996,-3.598 11.399,-5.996 16.344,-7.199 -11.098,-8.395 -20.242,-10.946 -27.59,-7.497"
         style="fill:#ffffff;fill-opacity:1;fill-rule:evenodd;stroke:none"
         id="path98"
         inkscape:connector-curvature="0" /><path
         d="M 387.27,100.074 400.316,89.43 c 5.547,-4.2 10.649,-7.348 15.598,-9.598 -16.949,-7.051 -28.195,-8.098 -33.894,-3.152 -6.297,4.351 -11.395,9.75 -15.446,16.496 -5.398,9.301 -9.297,15.297 -11.547,17.847 11.246,0.75 22.043,-3 32.243,-10.949"
         style="fill:#ffffff;fill-opacity:1;fill-rule:evenodd;stroke:none"
         id="path100"
         inkscape:connector-curvature="0" /><path
         d="m 327.883,116.723 c 10.047,-2.551 19.047,-8.848 26.844,-18.895 l 19.796,-28.195 c -12.75,-0.149 -21.894,2.398 -27.746,7.5 -2.996,2.699 -6.898,9.144 -11.847,19.344 l -2.848,10.648 c -0.898,3.449 -2.25,6.746 -4.199,9.598"
         style="fill:#ffffff;fill-opacity:1;fill-rule:evenodd;stroke:none"
         id="path102"
         inkscape:connector-curvature="0" /><path
         d="m 304.789,127.07 c 8.699,-3.75 15.598,-11.847 20.543,-23.996 6.75,-15.894 11.848,-25.793 15.297,-29.844 -10.645,-0.597 -18.145,1.954 -22.344,7.649 -5.25,7.051 -8.699,15 -10.195,23.547 l -3.301,22.644"
         style="fill:#ffffff;fill-opacity:1;fill-rule:evenodd;stroke:none"
         id="path104"
         inkscape:connector-curvature="0" /><path
         d="m 286.191,143.715 c 6.602,-4.949 11.551,-14.695 14.848,-28.942 4.649,-21.296 7.797,-33.593 9.297,-37.043 -12.145,1.653 -20.094,8.098 -23.691,19.196 -1.352,4.801 -1.5,11.699 -0.454,20.695 1.051,10.649 1.051,19.348 0,26.094"
         style="fill:#ffffff;fill-opacity:1;fill-rule:evenodd;stroke:none"
         id="path106"
         inkscape:connector-curvature="0" /><path
         d="m 281.094,131.117 c -2.25,-18.742 -2.848,-30.89 -1.801,-36.738 l -0.148,-4.051 c -5.399,2.699 -10.047,6.75 -14.098,12.149 -4.797,6.148 -6.899,11.996 -6.445,17.695 1.199,7.348 3.898,15.445 8.097,24.445 l 10.047,22.942 c 4.649,-8.696 5.996,-20.844 4.348,-36.442"
         style="fill:#ffffff;fill-opacity:1;fill-rule:evenodd;stroke:none"
         id="path108"
         inkscape:connector-curvature="0" /><path
         d="m 489.844,151.215 33.293,-9.899 c -8.848,-8.847 -19.496,-11.847 -32.094,-8.699 -3.746,0.903 -8.996,2.852 -16.043,5.699 l -16.199,6.301 c 8.097,7.196 18.445,9.446 31.043,6.598"
         style="fill:#ffffff;fill-opacity:1;fill-rule:evenodd;stroke:none"
         id="path110"
         inkscape:connector-curvature="0" /><path
         d="m 696.945,127.07 c -16.644,-3.449 -28.793,-6.898 -36.441,-10.5 l 1.5,4.801 c 4.949,8.098 13.348,15.297 25.492,21.746 12.149,6.746 20.848,13.946 25.945,21.594 5.547,-6 6.149,-13.195 1.801,-21.746 -4.199,-8.098 -10.347,-13.348 -18.297,-15.895"
         style="fill:#ffffff;fill-opacity:1;fill-rule:evenodd;stroke:none"
         id="path112"
         inkscape:connector-curvature="0" /><path
         d="m 696.945,99.324 -24.742,0 c -8.699,0 -16.648,0.903 -23.695,2.551 l 6.746,6 5.25,3.449 27.144,7.348 c 10.946,2.848 19.497,6.148 25.793,9.898 1.051,-5.55 -0.3,-11.398 -4.05,-17.547 -3.45,-5.546 -7.496,-9.449 -12.446,-11.699"
         style="fill:#ffffff;fill-opacity:1;fill-rule:evenodd;stroke:none"
         id="path114"
         inkscape:connector-curvature="0" /><path
         d="m 670.25,140.566 0.453,6.598 c 1.949,6.75 7.797,16.348 17.543,28.645 8.848,11.097 13.949,20.996 15.449,29.543 2.7,-2.551 5.098,-6.45 7.196,-11.399 1.949,-4.949 2.851,-9.297 2.55,-12.746 -1.648,-8.699 -7.648,-16.496 -17.996,-23.394 l -12.898,-8.25 c -5.399,-3.297 -9.445,-6.297 -12.297,-8.997"
         style="fill:#ffffff;fill-opacity:1;fill-rule:evenodd;stroke:none"
         id="path116"
         inkscape:connector-curvature="0" /><path
         d="m 674,68.582 c -17.246,1.801 -32.992,9.75 -47.09,23.695 6.899,4.051 17.996,5.098 33.293,3 l 20.395,-2.101 24.297,2.101 -13.2,-16.347 C 685.547,72.633 679.699,69.184 674,68.582"
         style="fill:#ffffff;fill-opacity:1;fill-rule:evenodd;stroke:none"
         id="path118"
         inkscape:connector-curvature="0" /><path
         d="m 670.25,162.012 c -0.598,9.445 0.902,22.343 4.5,38.988 3.602,16.797 5.25,29.695 4.949,38.691 8.547,-7.648 14.399,-15.746 17.246,-24.293 1.5,-9.296 -1.351,-18.894 -8.547,-28.793 l -9.597,-11.996 c -4.051,-4.648 -6.899,-8.847 -8.551,-12.597"
         style="fill:#ffffff;fill-opacity:1;fill-rule:evenodd;stroke:none"
         id="path120"
         inkscape:connector-curvature="0" /><path
         d="m 670.25,241.492 c 0.902,-20.094 -1.348,-37.941 -6.598,-53.687 -6.449,6.75 -10.945,17.847 -13.195,33.593 -2.852,18.446 -6,30.891 -9.449,37.34 14.847,-1.05 24.594,-6.75 29.242,-17.246"
         style="fill:#ffffff;fill-opacity:1;fill-rule:evenodd;stroke:none"
         id="path122"
         inkscape:connector-curvature="0" /><path
         d="m 631.563,56.285 c -6.602,5.25 -12.45,11.25 -17.547,17.996 l -13.797,20.696 c 5.699,-0.75 11.547,-3 17.695,-6.598 2.848,-1.649 7.949,-5.399 15.598,-10.949 13.195,-9.746 24.593,-14.395 34.191,-14.094 -4.351,-5.102 -10.797,-8.25 -19.348,-9.449 -7.796,-1.348 -13.343,-0.449 -16.792,2.398"
         style="fill:#ffffff;fill-opacity:1;fill-rule:evenodd;stroke:none"
         id="path124"
         inkscape:connector-curvature="0" /><path
         d="m 642.66,233.992 1.199,-14.394 c 0.45,-5.848 1.2,-10.496 2.098,-14.246 -7.047,1.8 -14.996,10.945 -23.844,27.593 -9.746,18.446 -17.097,29.391 -21.894,32.692 12.898,1.347 23.394,-1.051 31.344,-6.899 6.296,-5.25 10.046,-13.496 11.097,-24.746"
         style="fill:#ffffff;fill-opacity:1;fill-rule:evenodd;stroke:none"
         id="path126"
         inkscape:connector-curvature="0" /><path
         d="m 581.621,76.68 -8.098,27.746 c 9,-3.75 18.446,-12.149 28.196,-25.496 10.347,-14.395 19.344,-23.692 27.293,-27.891 -3.301,-2.851 -8.547,-3.601 -15.895,-2.402 -6.301,1.051 -10.648,2.699 -12.898,4.949 -8.399,5.398 -14.547,13.047 -18.598,23.094"
         style="fill:#ffffff;fill-opacity:1;fill-rule:evenodd;stroke:none"
         id="path128"
         inkscape:connector-curvature="0" /><path
         d="M 602.77,253.488 626.91,213 c -2.699,-0.75 -10.047,0.75 -22.043,4.496 l -43.34,48.141 c 13.649,3.597 27.446,-0.449 41.243,-12.149"
         style="fill:#ffffff;fill-opacity:1;fill-rule:evenodd;stroke:none"
         id="path130"
         inkscape:connector-curvature="0" /><path
         d="m 573.824,243.141 16.496,-20.844 c -6.746,-1.801 -13.945,-0.149 -21.445,4.801 l -18.145,14.695 c -2.847,2.699 -6.597,6.746 -11.246,12.297 l -11.398,11.547 c 6.598,2.097 12.148,2.551 16.496,1.347 1.949,-0.597 5.25,-2.546 9.898,-5.996 6.45,-3.75 12.895,-9.75 19.344,-17.847"
         style="fill:#ffffff;fill-opacity:1;fill-rule:evenodd;stroke:none"
         id="path132"
         inkscape:connector-curvature="0" /><path
         d="m 564.977,104.125 c 1.949,-3.75 4.199,-9.898 6.898,-18.445 5.098,-17.098 11.996,-28.645 20.844,-34.641 -2.246,-3 -7.496,-2.851 -16.043,0.449 -12.899,5.098 -20.098,15.145 -21.746,29.992 l -0.45,19.047 c -0.152,7.946 -0.902,14.094 -2.402,18.446 5.551,-3.602 9.75,-8.551 12.899,-14.848"
         style="fill:#ffffff;fill-opacity:1;fill-rule:evenodd;stroke:none"
         id="path134"
         inkscape:connector-curvature="0" /><path
         d="m 494.645,262.488 c 13.347,4.649 25.644,1.2 37.039,-10.347 l 13.796,-16.348 c 6,-6.746 11.399,-11.547 16.047,-14.695 -12.148,-2.399 -24.144,1.347 -36.293,11.246 -3.898,3.301 -8.996,8.097 -15.293,14.547 l -15.296,15.597"
         style="fill:#ffffff;fill-opacity:1;fill-rule:evenodd;stroke:none"
         id="path136"
         inkscape:connector-curvature="0" /><path
         d="m 546.98,106.676 -0.75,-20.848 c 0.301,-7.648 1.801,-13.945 4.649,-18.746 1.5,-1.496 0.601,-1.949 -2.547,-1.199 -7.648,1.351 -13.199,4.801 -16.496,10.347 l -6.449,16.047 c -0.153,12.149 0.148,20.996 0.898,26.844 1.199,9.746 4.051,17.695 8.551,23.844 8.848,-6.746 12.894,-18.895 12.144,-36.289"
         style="fill:#ffffff;fill-opacity:1;fill-rule:evenodd;stroke:none"
         id="path138"
         inkscape:connector-curvature="0" /><path
         d="m 519.086,115.82 c -1.949,-7.644 -2.398,-15.593 -1.348,-23.992 -6.148,3.75 -11.547,13.195 -15.894,28.043 1.949,1.949 5.695,4.649 11.246,8.25 l 11.398,8.996 -5.402,-21.297"
         style="fill:#ffffff;fill-opacity:1;fill-rule:evenodd;stroke:none"
         id="path140"
         inkscape:connector-curvature="0" /><path
         d="m 505.891,186.754 -27.594,-20.992 c 0.449,1.797 3.449,9.597 9,23.543 3.598,9.449 5.246,18.445 5.098,26.695 5.699,-4.199 10.195,-13.949 13.496,-29.246"
         style="fill:#ffffff;fill-opacity:1;fill-rule:evenodd;stroke:none"
         id="path142"
         inkscape:connector-curvature="0" /></g></g></svg>