<?xml version="1.0" encoding="UTF-8" standalone="no"?>
<svg
   xmlns:dc="http://purl.org/dc/elements/1.1/"
   xmlns:cc="http://creativecommons.org/ns#"
   xmlns:rdf="http://www.w3.org/1999/02/22-rdf-syntax-ns#"
   xmlns:svg="http://www.w3.org/2000/svg"
   xmlns="http://www.w3.org/2000/svg"
   width="150"
   height="78"
   viewBox="0 0 120 62.399998"
   version="1.1"
   id="svg3106">
  <metadata
     id="metadata3128">
    <rdf:RDF>
      <cc:Work
         rdf:about="">
        <dc:format>image/svg+xml</dc:format>
        <dc:type
           rdf:resource="http://purl.org/dc/dcmitype/StillImage" />
        <dc:title></dc:title>
      </cc:Work>
    </rdf:RDF>
  </metadata>
  <defs
     id="defs3126" />
  <path
     d="m 11.98164,1.7831208 96,0 0,60.1008452 -84.68168,0 c 5.171092,-0.22992 9.503189,-3.65041 12.742182,-7.4178 4.767734,-5.66722 8.107568,-12.597 9.36605,-19.905902 0.794626,-4.009408 -0.233948,-8.079322 -1.58924,-11.846723 -0.435632,0.129082 -0.87126,0.258157 -1.306887,0.387235 1.270582,3.489073 2.315286,7.260502 1.609404,10.991593 -0.951928,6.098802 -3.569746,11.862897 -7.078984,16.908927 -2.642024,3.65446 -5.909248,7.12337 -10.196978,8.78924 -3.384204,1.35123 -7.54286,0.82686 -10.26555,-1.66994 -2.448402,-1.96841 -3.347897,-5.30013 -3.202687,-8.33343 0.104874,-5.08639 2.291093,-10.055755 5.760007,-13.754629 -0.354967,-0.282351 -0.705888,-0.564704 -1.06085,-0.847061 -3.852098,4.1183 -6.070585,9.69279 -6.094787,15.32771 l 0,-48.7300652 z"
     id="path3108"
     style="fill:#ffffff" />
  <path
     d="m 92.468345,3.6587537 c 2.60979,-1.4198279 5.735805,-1.8352889 8.603715,-1.024539 1.53679,0.66958 3.239,1.214115 4.199,2.698491 1.48838,1.258487 1.66188,3.267229 2.16199,5.0258833 0.43157,6.131089 -1.43591,12.153278 -3.80368,17.735802 -1.29883,2.597644 -2.46856,5.425213 -4.735455,7.345213 -3.803685,4.142537 -9.2652,6.187582 -14.52098,7.817162 -0.09682,-0.32272 -0.29449,-0.9721 -0.39532,-1.29478 5.808425,-1.661895 11.66924,-4.255515 15.497145,-9.103902 3.62619,-5.562354 5.81647,-12.028235 6.64338,-18.598988 0.0319,-2.476639 0.0726,-5.1428623 -1.25046,-7.3331103 -1.45208,-2.182191 -4.07794,-3.271261 -6.63526,-3.384204 -2.952665,-0.06858 -5.687405,1.367397 -7.954285,3.150254 -3.045395,2.452432 -5.38495,5.6470603 -7.40171,8.9707523 C 82.50133,15.412705 82.12614,15.166654 81.75106,14.924637 84.46974,10.491699 87.769205,6.1152277 92.468345,3.6587537 z"
     id="path3110"
     style="fill:#000000" />
  <path
     d="m 18.112735,5.5222857 c 1.940166,-1.964371 4.896806,-2.68235 7.571094,-2.162021 3.335791,0.693784 6.143188,2.879999 8.458482,5.292104 2.545212,2.6379853 4.541851,5.7398343 6.284371,8.9465563 -0.37916,0.233946 -0.758322,0.4679 -1.137482,0.701851 -1.907897,-3.412447 -4.017477,-6.784542 -6.897477,-9.4709273 -2.347562,-2.299163 -5.348573,-4.340173 -8.765041,-4.307903 -2.686385,0.088741 -4.925042,1.915968 -6.526385,3.940842 -2.460506,3.2591583 -2.682355,7.6517673 -1.714287,11.4917663 1.565042,6.118987 5.320337,11.487732 9.854121,15.795632 3.767392,3.464885 8.276969,6.38117 13.395626,7.25245 -0.08471,0.44773 -0.16941,0.89141 -0.258148,1.33913 C 29.94332,42.704166 23.061978,36.617413 18.342647,29.687668 15.039119,24.629516 12.586682,18.445986 13.865338,12.335061 14.510716,9.6930437 15.938615,7.1922027 18.112735,5.5222857 z"
     id="path3112"
     style="fill:#000000" />
  <path
     d="m 52.071723,16.247668 c 2.666237,-0.314624 5.336464,-0.633277 8.014806,-0.867232 5.868886,-0.05647 11.774116,0.826891 17.304161,2.811431 7.76071,2.670248 14.654145,7.272601 21.148275,12.197649 -0.26223,0.367046 -0.528425,0.734113 -0.79062,1.101171 -8.176125,-6.288402 -17.2477,-11.927391 -27.52131,-13.875626 -4.3644,-0.790593 -8.857858,-1.234285 -13.266551,-0.580844 -2.149905,0.326725 -4.384566,0.242017 -6.437666,1.060844 -3.06958,1.097142 -6.369078,1.645715 -9.196638,3.339827 -2.307228,1.23429 -4.707228,2.287058 -6.98622,3.565718 -3.186556,2.12571 -6.324707,4.32403 -9.483027,6.490081 -0.258152,-0.387223 -0.5163,-0.770423 -0.774447,-1.157643 3.396295,-2.190257 6.639325,-4.618489 10.043694,-6.792609 3.025209,-1.524705 6.046382,-3.065547 9.095798,-4.533781 2.936472,-0.96 5.885039,-1.899829 8.849745,-2.758986 z"
     id="path3114"
     style="fill:#000000" />
  <path
     d="m 42.512065,23.100776 c 0.435627,-0.129078 0.871255,-0.258153 1.306887,-0.387235 1.355284,3.767401 2.383866,7.837315 1.58924,11.846723 -1.258482,7.308902 -4.598316,14.238682 -9.36605,19.905902 -3.238993,3.76739 -7.571091,7.18788 -12.742183,7.4178 l -1.327058,0 c -3.58185,-0.46387 -7.135463,-2.4847 -8.696471,-5.84469 -0.826891,-1.38759 -0.988235,-3.02523 -1.29479,-4.58219 l 0,-0.9439 c 0.0242,-5.63492 2.242689,-11.20941 6.094787,-15.32771 0.354962,0.282357 0.705883,0.56471 1.06085,0.847061 -3.468914,3.698874 -5.655133,8.668239 -5.760007,13.754629 -0.14521,3.0333 0.754285,6.36502 3.202687,8.33343 2.72269,2.4968 6.881346,3.02117 10.26555,1.66994 4.28773,-1.66587 7.554954,-5.13478 10.196978,-8.78924 3.509238,-5.04603 6.127056,-10.810125 7.078984,-16.908927 0.705882,-3.731091 -0.338822,-7.50252 -1.609404,-10.991593 z"
     id="path3116"
     style="fill:#000000" />
  <path
     d="m 77.95944,22.874888 c 0.318695,0.08472 0.95196,0.25412 1.270655,0.338827 -1.278695,5.037984 -2.16206,10.479329 -0.43165,15.529431 2.15798,6.05443 5.840685,11.56839 10.531785,15.95295 3.126015,2.78318 7.458115,5.50986 11.74993,3.82385 1.52468,-0.94788 3.03723,-2.10556 3.92065,-3.71096 1.71426,-2.82353 1.73847,-6.35692 0.8874,-9.4669 -0.78254,-3.18657 -2.38389,-6.08671 -4.15869,-8.817449 0.27835,-0.189576 0.82691,-0.57277 1.10117,-0.762351 3.31165,4.93308 6.02626,11.04405 4.48137,17.07027 -0.73814,3.00501 -2.98489,5.29211 -5.53011,6.89745 -1.02051,0.29448 -2.065215,0.5042 -3.105835,0.70994 -2.94455,-0.005 -5.73987,-1.26656 -8.091495,-2.98088 -4.687005,-3.53746 -8.28099,-8.33747 -11.027885,-13.49242 -1.2141,-2.54119 -2.3919,-5.15497 -2.78722,-7.966382 -0.69376,-4.396635 0.05652,-8.86991 1.189925,-13.125376 z"
     id="path3118"
     style="fill:#000000" />
  <path
     d="m 45.468698,44.285306 c 10.07193,2.49278 20.627922,1.40368 30.623182,-0.91563 0.07664,0.31869 0.237975,0.96 0.314665,1.27869 -10.184905,2.38788 -20.962735,3.49709 -31.228265,0.9358 0.0726,-0.32677 0.21781,-0.97617 0.290418,-1.29886 z"
     id="path3120"
     style="fill:#000000" />
  <path
     d="m 11.98164,51.457086 c 0.306555,1.55696 0.467899,3.19461 1.29479,4.58219 1.561008,3.36 5.114621,5.38082 8.696471,5.84469 l -9.991261,0 0,-10.42688 z"
     id="path3122"
     style="fill:#ffffff" />
  <flowRoot
     xml:space="preserve"
     id="flowRoot3295-4"
     style="font-style:italic;font-variant:normal;font-weight:normal;font-stretch:normal;line-height:0.01%;font-family:'URW Bookman L';-inkscape-font-specification:'URW Bookman L Italic';letter-spacing:0px;word-spacing:0px;fill:#000000;fill-opacity:1;stroke:none"
     transform="matrix(0.8,0,0,0.8,-147.61824,-300.35186)"><flowRegion
       id="flowRegion3297-3-1"><rect
         id="rect3299-0-8"
         width="31.358953"
         height="20.091017"
         x="187.3833"
         y="374.80237"
         style="font-size:14px;font-style:italic;font-variant:normal;font-weight:normal;font-stretch:normal;font-family:URW Bookman L;-inkscape-font-specification:URW Bookman L Italic" /></flowRegion><flowPara
       id="flowPara3301-89"
       style="font-style:italic;font-variant:normal;font-weight:normal;font-stretch:normal;font-size:14px;line-height:1.25;font-family:'URW Bookman L';-inkscape-font-specification:'URW Bookman L Italic'">a<flowSpan
   style="font-size:65.0009%;baseline-shift:sub"
   id="flowSpan3004">1</flowSpan></flowPara></flowRoot>
  <flowRoot
     xml:space="preserve"
     id="flowRoot3295-4-8"
     style="font-style:italic;font-variant:normal;font-weight:normal;font-stretch:normal;line-height:0.01%;font-family:'URW Bookman L';-inkscape-font-specification:'URW Bookman L Italic';letter-spacing:0px;word-spacing:0px;fill:#000000;fill-opacity:1;stroke:none"
     transform="matrix(0.8,0,0,0.8,-96.33521,-255.2998)"><flowRegion
       id="flowRegion3297-3-1-2"><rect
         id="rect3299-0-8-7"
         width="31.358953"
         height="20.091017"
         x="187.3833"
         y="374.80237"
         style="font-size:14px;font-style:italic;font-variant:normal;font-weight:normal;font-stretch:normal;font-family:URW Bookman L;-inkscape-font-specification:URW Bookman L Italic" /></flowRegion><flowPara
       id="flowPara3301-89-9"
       style="font-style:italic;font-variant:normal;font-weight:normal;font-stretch:normal;font-size:14px;line-height:1.25;font-family:'URW Bookman L';-inkscape-font-specification:'URW Bookman L Italic'">a<flowSpan
   style="font-size:65.0009%;baseline-shift:sub"
   id="flowSpan3004-1">2</flowSpan></flowPara></flowRoot>
  <flowRoot
     xml:space="preserve"
     id="flowRoot3295-4-5"
     style="font-style:italic;font-variant:normal;font-weight:normal;font-stretch:normal;line-height:0.01%;font-family:'URW Bookman L';-inkscape-font-specification:'URW Bookman L Italic';letter-spacing:0px;word-spacing:0px;fill:#000000;fill-opacity:1;stroke:none"
     transform="matrix(0.8,0,0,0.8,-42.519866,-301.8663)"><flowRegion
       id="flowRegion3297-3-1-29"><rect
         id="rect3299-0-8-0"
         width="31.358953"
         height="20.091017"
         x="187.3833"
         y="374.80237"
         style="font-size:14px;font-style:italic;font-variant:normal;font-weight:normal;font-stretch:normal;font-family:URW Bookman L;-inkscape-font-specification:URW Bookman L Italic" /></flowRegion><flowPara
       id="flowPara3301-89-5"
       style="font-style:italic;font-variant:normal;font-weight:normal;font-stretch:normal;font-size:14px;line-height:1.25;font-family:'URW Bookman L';-inkscape-font-specification:'URW Bookman L Italic'">a<flowSpan
   style="font-size:65.0009%;baseline-shift:sub"
   id="flowSpan3004-0">3</flowSpan></flowPara></flowRoot>
  <flowRoot
     xml:space="preserve"
     id="flowRoot3295-4-6"
     style="font-style:italic;font-variant:normal;font-weight:normal;font-stretch:normal;line-height:0.01%;font-family:'URW Bookman L';-inkscape-font-specification:'URW Bookman L Italic';letter-spacing:0px;word-spacing:0px;fill:#000000;fill-opacity:1;stroke:none"
     transform="matrix(0.8,0,0,0.8,-43.408752,-250.71763)"><flowRegion
       id="flowRegion3297-3-1-1"><rect
         id="rect3299-0-8-1"
         width="31.358953"
         height="20.091017"
         x="187.3833"
         y="374.80237"
         style="font-size:14px;font-style:italic;font-variant:normal;font-weight:normal;font-stretch:normal;font-family:URW Bookman L;-inkscape-font-specification:URW Bookman L Italic" /></flowRegion><flowPara
       id="flowPara3301-89-0"
       style="font-style:italic;font-variant:normal;font-weight:normal;font-stretch:normal;font-size:14px;line-height:1.25;font-family:'URW Bookman L';-inkscape-font-specification:'URW Bookman L Italic'">a<flowSpan
   style="font-size:65.0009%;baseline-shift:sub"
   id="flowSpan3004-7">4</flowSpan></flowPara></flowRoot>
  <flowRoot
     xml:space="preserve"
     id="flowRoot3295-4-87"
     style="font-style:italic;font-variant:normal;font-weight:normal;font-stretch:normal;line-height:0.01%;font-family:'URW Bookman L';-inkscape-font-specification:'URW Bookman L Italic';letter-spacing:0px;word-spacing:0px;fill:#000000;fill-opacity:1;stroke:none"
     transform="matrix(0.8,0,0,0.8,-94.62499,-298.70877)"><flowRegion
       id="flowRegion3297-3-1-3"><rect
         id="rect3299-0-8-3"
         width="31.358953"
         height="20.091017"
         x="187.3833"
         y="374.80237"
         style="font-size:14px;font-style:italic;font-variant:normal;font-weight:normal;font-stretch:normal;font-family:URW Bookman L;-inkscape-font-specification:URW Bookman L Italic" /></flowRegion><flowPara
       id="flowPara3301-89-4"
       style="font-style:italic;font-variant:normal;font-weight:normal;font-stretch:normal;font-size:14px;line-height:1.25;font-family:'URW Bookman L';-inkscape-font-specification:'URW Bookman L Italic'">a<flowSpan
   style="font-size:65.0009%;baseline-shift:sub"
   id="flowSpan3004-9">5</flowSpan></flowPara></flowRoot>
  <flowRoot
     xml:space="preserve"
     id="flowRoot3295-4-2"
     style="font-style:italic;font-variant:normal;font-weight:normal;font-stretch:normal;line-height:0.01%;font-family:'URW Bookman L';-inkscape-font-specification:'URW Bookman L Italic';letter-spacing:0px;word-spacing:0px;fill:#000000;fill-opacity:1;stroke:none"
     transform="matrix(0.8,0,0,0.8,-150.6952,-250.61972)"><flowRegion
       id="flowRegion3297-3-1-0"><rect
         id="rect3299-0-8-5"
         width="31.358953"
         height="20.091017"
         x="187.3833"
         y="374.80237"
         style="font-size:14px;font-style:italic;font-variant:normal;font-weight:normal;font-stretch:normal;font-family:URW Bookman L;-inkscape-font-specification:URW Bookman L Italic" /></flowRegion><flowPara
       id="flowPara3301-89-3"
       style="font-style:italic;font-variant:normal;font-weight:normal;font-stretch:normal;font-size:14px;line-height:1.25;font-family:'URW Bookman L';-inkscape-font-specification:'URW Bookman L Italic'">a<flowSpan
   style="font-size:65.0009%;baseline-shift:sub"
   id="flowSpan3004-2">6</flowSpan></flowPara></flowRoot>
  <path
     id="path3266"
     d="m 28.817076,36.342655 1.115805,4.460702 -4.603853,-0.876283"
     style="fill:none;stroke:#000000;stroke-width:0.80000001;stroke-linecap:butt;stroke-linejoin:miter;stroke-miterlimit:4;stroke-opacity:1;stroke-dasharray:none" />
</svg>
