<?xml version="1.0" encoding="UTF-8" standalone="no"?>
<!-- Created with Inkscape (http://www.inkscape.org/) -->

<svg
   xmlns:dc="http://purl.org/dc/elements/1.1/"
   xmlns:cc="http://creativecommons.org/ns#"
   xmlns:rdf="http://www.w3.org/1999/02/22-rdf-syntax-ns#"
   xmlns:svg="http://www.w3.org/2000/svg"
   xmlns="http://www.w3.org/2000/svg"
   xmlns:sodipodi="http://sodipodi.sourceforge.net/DTD/sodipodi-0.dtd"
   xmlns:inkscape="http://www.inkscape.org/namespaces/inkscape"
   version="1.0"
   width="150.56299"
   height="158.12848"
   id="svg4489"
   inkscape:version="0.48.4 r9939"
   sodipodi:docname="thistlethwaite.svg">
  <metadata
     id="metadata8">
    <rdf:RDF>
      <cc:Work
         rdf:about="">
        <dc:format>image/svg+xml</dc:format>
        <dc:type
           rdf:resource="http://purl.org/dc/dcmitype/StillImage" />
        <dc:title />
      </cc:Work>
    </rdf:RDF>
  </metadata>
  <sodipodi:namedview
     pagecolor="#ffffff"
     bordercolor="#666666"
     borderopacity="1"
     objecttolerance="10"
     gridtolerance="10"
     guidetolerance="10"
     inkscape:pageopacity="0"
     inkscape:pageshadow="2"
     inkscape:window-width="1440"
     inkscape:window-height="848"
     id="namedview6"
     showgrid="false"
     fit-margin-top="0"
     fit-margin-left="0"
     fit-margin-right="0"
     fit-margin-bottom="0"
     inkscape:zoom="2.6991852"
     inkscape:cx="83.976476"
     inkscape:cy="113.38062"
     inkscape:window-x="0"
     inkscape:window-y="31"
     inkscape:window-maximized="1"
     inkscape:current-layer="svg4489" />
  <defs
     id="defs4491" />
  <g
     transform="matrix(0.07992742,0,0,0.07992742,-11.554403,40.176247)"
     id="layer1">
    <path
       d="m 1713.9286,1475.5581 c -4.4,-0.1885 -22.625,-0.8205 -40.5,-1.4045 -77.9122,-2.5455 -168.3951,-7.0428 -332,-16.5016 -138.6359,-8.0153 -211.2919,-10.0387 -413.00003,-11.5018 -158.2316,-1.1478 -349.60817,-4.9195 -380.78328,-7.5046 -70.00727,-5.8052 -119.68624,-18.2004 -161.21672,-40.2245 -27.93731,-14.8155 -47.2691,-32.232 -57.02406,-51.3742 -6.35755,-12.4755 -8.13748,-20.8619 -12.50075,-58.899 -1.41955,-12.375 -5.46356,-42.975 -8.9867,-68 -6.29938,-44.7447 -9.12016,-67.7885 -11.69013,-95.5 -0.88528,-9.5459 -1.2843,-31.3393 -1.25415,-68.5 0.0467,-57.63319 0.73246,-72.30809 6.02782,-129.00001 1.36139,-14.575 3.82552,-41.9727 5.47586,-60.8837 4.19166,-48.0321 7.17992,-69.8701 12.60495,-92.1163 14.86903,-60.9728 40.19228,-88.0383 88.81374,-94.9239 9.05787,-1.2828 12.50279,0.3495 12.50279,5.9239 0,4.4627 -1.33073,5.2215 -11.61491,6.6228 -30.94607,4.2168 -48.7327,15.9348 -61.28771,40.3772 -8.52507,16.5968 -14.16335,34.8953 -18.51151,60.0773 -6.70384,38.8248 -11.2676,79.8858 -16.99672,152.9227 -4.3988,56.07751 -5.0194,70.49331 -5.01536,116.50001 0.005,58.3895 1.51887,76.9032 12.46904,152.5 7.18907,49.6313 8.45485,59.3201 10.93552,83.7054 2.15248,21.1591 5.08665,32.2686 11.60759,43.9493 25.64803,45.9421 98.71149,75.7845 206.44469,84.3213 52.37392,4.1501 173.62477,6.6712 387,8.0466 216.82983,1.3977 259.59133,2.6571 440.50003,12.9739 135.6929,7.7383 190.8156,10.5356 276.5,14.0315 44.801,1.8279 112.8242,2.3727 131.5,1.0532 69.3373,-4.8988 121.7685,-21.5492 160.2203,-50.8805 33.1898,-25.3175 54.6858,-57.4166 64.7578,-96.7007 4.4088,-17.1955 5.9502,-32.0597 5.2223,-50.3576 -2.4167,-60.744 -28.3358,-93.2649 -86.1793,-108.1298 -8.8265,-2.2683 -11.4082,-3.3476 -12.9648,-5.4204 -1.527,-2.0332 -1.7414,-3.1561 -1,-5.2366 1.7873,-5.0159 3.1608,-5.0936 19.0654,-1.0787 28.2778,7.1382 47.0888,16.5453 61.4358,30.7231 33.3958,33.0018 43.186,94.2112 24.3117,152 -4.5978,14.0774 -17.7787,40.3066 -26.1082,51.9539 -30.2453,42.2921 -83.6974,74.106 -146.8791,87.4202 -14.0599,2.9629 -37.0079,6.1857 -54.2632,7.6207 -12.9561,1.0775 -63.8435,2.0055 -77.6187,1.4154 z M 368.98527,1317.9254 c -4.38415,-6.2592 -1.16362,-8.802 16.84314,-13.2984 8.19491,-2.0464 26.86991,-7.5187 41.5,-12.1607 43.05095,-13.6596 57.63469,-17.4777 81.36964,-21.3029 40.98074,-6.6045 78.00003,-8.6006 185.23052,-9.9874 144.3549,-1.867 159.95209,-2.6379 303,-14.9746 142.07753,-12.2531 203.77363,-13.7189 295.34613,-7.0175 45.8854,3.358 86.4386,7.5716 196.2025,20.3859 65.7377,7.6745 102.3381,11.2562 165.9514,16.2398 44.6636,3.4991 95.4728,3.9325 117,0.9981 35.9089,-4.8949 60.2689,-15.3048 76.1592,-32.5457 13.4076,-14.5471 22.258,-35.2318 26.4436,-61.8031 3.2388,-20.5603 1.7853,-66.1438 -3.1924,-100.122 -3.0422,-20.7659 -9.8974,-38.5451 -18.966,-49.189 -21.43,-25.1528 -51.2328,-32.7984 -87.2424,-22.3814 -6.7062,1.94 -8.7203,2.1781 -10.5,1.2412 -2.8992,-1.5262 -3.6682,-2.7959 -3.6867,-6.0867 -0.021,-3.7251 2.7264,-5.3037 14.5917,-8.38429 12.2977,-3.1929 33.3061,-4.3197 45.1295,-2.4205 26.9197,4.324 49.1777,21.07099 62.1192,46.73839 9.8523,19.5407 14.4144,45.5213 15.7528,89.7113 1.5135,49.9706 -5.4098,83.0609 -23.0361,110.102 -17.0264,26.1209 -44.1763,40.6924 -87.5827,47.0064 -15.6798,2.2808 -55.572,3.0055 -86.4897,1.5713 -62.249,-2.8877 -108.089,-7.2392 -247.5,-23.4944 -124.6497,-14.534 -185.1525,-18.964 -259,-18.9636 -58.4132,2e-4 -97.2414,2.111 -209.00003,11.3617 -139.06505,11.5109 -187.37345,13.8776 -285.5,13.9871 -50.16867,0.056 -99.48584,2.0671 -136.5,5.5666 -41.96675,3.9677 -70.10968,9.4832 -104.5,20.48 -39.57304,12.6541 -69.56906,20.9649 -75.66821,20.9649 -1.67548,0 -3.31563,-0.8527 -4.27509,-2.2225 z m -105.2159,-8.1783 c -33.205,-11.7261 -64.18765,-31.1935 -81.53069,-51.2282 -28.01949,-32.3682 -39.30743,-76.2892 -37.48957,-145.871 1.18196,-45.2415 5.48492,-77.0702 22.5882,-167.08301 13.24395,-69.7016 14.46425,-77.8866 19.59292,-131.417 6.78317,-70.7991 11.72194,-99.3589 22.59573,-130.6661 9.58783,-27.6048 21.08732,-46.661 38.84021,-64.3635 13.10227,-13.065 23.69282,-20.5314 40.44345,-28.5125 18.03333,-8.5923 33.41113,-13.0438 57.11895,-16.5346 22.32503,-3.2871 27.53441,-2.6187 29.12974,3.7376 1.13789,4.5337 -1.73052,5.9031 -15.12974,7.2231 -47.46053,4.6754 -85.95365,22.439 -110.03774,50.7795 -18.46394,21.7272 -29.76291,49.0579 -38.38017,92.8365 -4.05183,20.5847 -6.35989,37.7541 -11.10299,82.5939 -5.93459,56.1038 -7.79166,68.3347 -20.48335,134.9061 -17.61729,92.40751 -21.43174,122.13691 -22.19688,173.00001 -0.41617,27.6656 -0.20507,37.2078 1.06564,48.169 4.77585,41.1967 14.8618,64.2375 38.27769,87.4435 18.89844,18.729 43.57815,33.4737 73.40656,43.8563 5.6758,1.9756 10.91175,4.0835 11.63544,4.6841 2.1842,1.8127 1.62765,7.5153 -0.90671,9.2904 -3.04081,2.1299 -3.61914,2.0355 -17.43669,-2.8441 z M 1813.668,1132.6682 c -52.6185,-17.6734 -82.6701,-50.0138 -90.6185,-97.5203 -5.4049,-32.3046 -4.391,-67.55069 3.4808,-121.00001 11.0189,-74.8173 12.2178,-84.7391 18.9115,-156.5 9.6224,-103.1599 26.6563,-245.4003 47.9016,-400 13.2617,-96.50423 18.6754,-137.91288 23.9902,-183.5 12.3488,-105.919026 13.8977,-141.772316 7.4723,-172.9594757 -9.6489,-46.8329303 -38.8239,-81.0081203 -86.5364,-101.3676343 -42.354,-18.07294 -112.232,-32.05624 -213.3409,-42.69166 -33.0926,-3.48094 -59.8803,-6.77796 -117.5,-14.46185 -22.275,-2.97049 -45.1917,-5.95679 -50.9261,-6.63622 -11.0143,-1.30501 -14.0739,-2.81567 -14.0739,-6.9489 0,-2.71883 1.5677,-5.55441 3.4757,-6.28657 1.8275,-0.70126 49.7519,5.3541 97.0243,12.25924 37.844,5.52792 41.4477,5.95751 80.5,9.59614 75.7777,7.06046 138.7884,17.77615 188.8847,32.122 68.3492,19.57283 107.0568,56.343794 121.4516,115.3749343 4.9465,20.2850997 6.0884,32.0874497 6.047,62.4999997 -0.032,23.1933 -0.5035,32.46336 -2.7491,53.999996 -6.5505,62.82451 -13.201,116.13591 -29.6273,237.5 -16.6153,122.75981 -19.4835,144.96926 -29.446,228 -9.3906,78.2646 -14.8898,129.3007 -21.0652,195.5 -5.8968,63.2127 -8.5778,85.1046 -16.9615,138.5 -6.1272,39.0237 -7.803,56.19242 -7.8573,80.50002 -0.053,23.85009 1.404,37.67839 5.7952,54.98899 5.3155,20.954 13.0879,35.0535 26.2466,47.6125 13.8784,13.2457 27.3086,20.669 52.6381,29.0945 8.3287,2.7705 15.7057,5.4898 16.3932,6.043 0.6875,0.5533 1.25,2.0962 1.25,3.4289 0,2.5768 -4.0384,7.3408 -6.2045,7.3192 -0.7125,-0.01 -7.2628,-2.0171 -14.5561,-4.4668 z m -263.7394,-78.6958 c -40.7075,-4.0986 -75.9331,-19.1502 -99,-42.3019 -20.2628,-20.33729 -28.9801,-39.79049 -35.8595,-80.02261 -5.8673,-34.3129 -7.7739,-62.2179 -7.7549,-113.5 0.016,-42.382 0.5844,-57.3105 5.1054,-134 4.4224,-75.0169 5.295,-99.9842 4.7283,-135.3004 -0.4342,-27.0662 -0.8329,-33.6436 -2.5005,-41.2572 -3.6532,-16.67924 -9.4113,-28.00362 -20.1781,-39.68453 -29.0946,-31.56481 -78.2273,-43.41094 -165.5407,-39.91271 -22.2821,0.89274 -25.1902,0.83003 -26.75,-0.57675 -2.421,-2.18356 -2.188,-5.92134 0.5391,-8.64842 2.163,-2.16297 3.3013,-2.32576 20.6603,-2.95454 82.9148,-3.00336 126.2134,4.0188 159.8096,25.91794 25.5318,16.64244 39.8026,39.58814 44.7915,72.01891 1.3377,8.6961 1.6669,17.9685 1.6295,45.8977 -0.051,38.1304 -0.7288,55.3122 -5.1876,131.5 -6.5814,112.4572 -6.7326,145.5075 -0.9448,206.5 2.3582,24.8501 4.2349,37.5653 7.4635,50.566 6.4339,25.90792 15.2759,42.08642 31.0824,56.87261 20.3822,19.0666 48.725,30.8027 87.4065,36.1933 6.0361,0.8412 18.7978,1.2913 35,1.2344 25.9332,-0.091 37.824,-1.6499 70.8618,-5.56 21.7355,-2.5724 11.7993,-2.2693 16.3618,-2.2484 4.5625,0.021 0.6572,-0.046 1.8882,2.3318 1.6043,3.0993 2.4402,6.4154 0.426,8.4296 -2.1798,2.1799 -29.4112,6.2381 -58.0378,8.6493 -14.359,1.2095 -53.4027,1.1242 -66,-0.1441 z M 697.92857,878.13439 c -85.61104,-3.84018 -149.24284,-25.3899 -190.26757,-64.4365 -26.47714,-25.2004 -42.12582,-57.7325 -55.58228,-115.55 -28.02738,-120.4235 -41.58079,-199.0124 -50.09951,-290.5 -6.53405,-70.17296 -8.01027,-117.29575 -9.57049,-305.5 -1.02271,-123.366216 -1.56015,-148.775466 -4.57932,-216.5 -3.13919,-70.41667 -0.0769,-115.19279 10.22461,-149.5 12.95885,-43.15713 34.60284,-71.53921 69.08375,-90.59054 10.09789,-5.57927 14.05146,-6.50595 16.65387,-3.90354 4.65164,4.65164 2.77884,8.339 -6.63141,13.05656 -34.7951,17.44354 -57.55079,48.2919 -69.22584,93.84482 -9.73367,37.97819 -11.12071,83.12178 -5.91741,192.592704 1.10288,23.20318 1.78931,72.40482 2.39965,171.999996 0.94463,154.14429 1.93493,193.40681 6.55788,260 7.07279,101.88289 21.35752,188.4442 50.00243,303 14.63594,58.5316 19.15004,72.724 29.59801,93.0568 17.17444,33.4233 45.35267,56.8442 88.41475,73.4877 59.12535,22.852 135.31594,27.2347 277.43888,15.9591 42.96459,-3.4087 76.24578,-5.4999 103,-6.4719 15.675,-0.5695 47.62503,-1.721 71.00003,-2.5589 23.375,-0.8379 81.65,-3.29 129.5,-5.4491 122.5544,-5.53 186.8989,-8.0205 207.2714,-8.0226 9.9031,-10e-4 10.3111,0.0859 11.377,2.4252 1.3978,3.0678 0.3963,7.2118 -2.0607,8.5268 -1.0388,0.5559 -16.446,1.464 -34.2382,2.018 -46.8956,1.4601 -75.9828,2.6414 -173.3495,7.0401 -47.85,2.1618 -104.1,4.6276 -125,5.4796 -104.18222,4.2473 -133.30672,5.8419 -201.00003,11.0051 -74.18122,5.6581 -110.55838,7.03552 -145,5.4906 z m 758.50003,-30.7167 c -5.5356,-0.24563 -7.8274,-0.7675 -8.75,-1.9924 -1.8825,-2.4994 -1.5067,-6.0207 0.8994,-8.4268 2.1151,-2.1151 2.5095,-2.1385 24.75,-1.4675 43.4273,1.3102 65.7338,-2.9093 82.5743,-15.6197 9.4877,-7.1607 17.2548,-17.5866 25.526,-34.2634 12.027,-24.2496 19.0494,-49.329 27.0206,-96.5 17.1047,-101.2206 15.5222,-207.48545 -4.1996,-282 -7.3604,-27.80997 -20.5358,-57.63272 -33.576,-76 -13.7005,-19.29729 -35.0216,-37.86442 -54.9744,-47.87355 -34.705,-17.40941 -82.002,-24.02024 -136.2703,-19.04686 -35.1116,3.21777 -63.5965,8.89064 -152.4825,30.36735 -12.6404,3.05418 -23.9708,5.55306 -25.1786,5.55306 -4.577,0 -7.0752,-6.28925 -4.0889,-10.29411 2.4064,-3.2272 114.0501,-27.65262 151.25,-33.09048 30.0874,-4.39818 39.8903,-5.11634 69.5,-5.09159 22.027,0.0184 31.1773,0.42492 40.2879,1.78987 66.9004,10.02296 114.1659,44.09162 141.7693,102.18631 20.74,43.64968 29.945,97.39729 31.5982,184.5 1.6146,85.0699 -8.9003,166.6105 -29.2606,226.9082 -17.4844,51.7809 -41.8152,74.7041 -84.8948,79.9833 -8.1612,1.0001 -42.6989,1.21257 -61.5,0.3783 z M 889.92857,720.46779 c -35.28147,-0.81897 -65.71739,-3.3424 -124.5,-10.3222 -75.40062,-8.9531 -90.86042,-10.0696 -173,-12.4948 -52.71131,-1.5564 -94.07353,-3.9367 -97.16616,-5.5918 -1.28999,-0.6904 -1.83384,-2.121 -1.83384,-4.8238 0,-6.0551 1.19386,-6.4875 15.78391,-5.7168 37.11558,1.9605 53.99414,2.6617 87.21609,3.6232 73.62546,2.1308 85.30355,3.0595 194,15.428 54.86614,6.2431 67.77504,7.0059 119,7.0316 37.01378,0.0186 50.37609,-0.3408 65.5,-1.7617 63.97903,-6.011 100.72583,-14.3499 132.00003,-29.9547 26.7901,-13.3673 48.7576,-36.6654 58.6089,-62.1592 9.6443,-24.9579 13.2911,-59.9808 13.18,-126.5777 -0.1089,-65.27307 -2.7969,-123.09124 -9.7861,-210.5 -7.1671,-89.63364 -6.7598,-80.31925 -6.0342,-138 0.7319,-58.182306 -0.037,-72.657006 -4.8703,-91.711516 -6.3476,-25.02276 -19.471,-38.6848197 -41.6924,-43.4037797 -8.0244,-1.70406 -17.3355,-1.61584 -64.9059,0.61498 -23.3769,1.09627 -75.69303,-0.14092 -131.96463,-1.8518 -37.09318,-1.12778 -11.96459,0.20159 -16.46459,-0.64788 -4.5,-0.84947 -0.78463,-0.82007062 -1.53541,-2.75 -1.01351,-2.6053006 -1.38053,-3.02727 6.1e-4,-5.5 1.51159,-2.70628 1.7103,-2.7548 12.5,-3.0517 6.03019,-0.16593 25.81399,0.39672 43.96399,1.25034 47.09083,2.21473 83.57153,2.06059 105.23093,-0.44463 43.8119,-5.0675003 60.5845,-3.2606703 78.1533,8.41902999 12.3177,8.18879001 21.3314,20.86858971 26.9119,37.85776971 6.8828,20.95364 8.6401,44.66575 7.0567,95.219186 -1.2658,40.41326 -0.8788,54.00618 2.5768,90.5 9.9559,105.1428 14.276,216.56341 11.6707,301 -1.2967,42.0268 -2.3313,56.1222 -5.1456,70.1041 -5.2219,25.9435 -16.5821,48.2155 -33.6421,65.956 -13.7835,14.3335 -30.1536,24.6433 -53.8232,33.8977 -27.8206,10.8773 -69.2371,19.2911 -115.98943,23.5634 -17.67353,1.615 -62.19463,3.5816 -73.5,3.2466 -3.575,-0.1059 -11.45,-0.30747 -17.5,-0.4479 z m -72,-94.9233 c -2.2,-0.20155 -11.2,-0.8502 -20,-1.4413 -39.04217,-2.6227 -77.40155,-7.1624 -164.5,-19.4681 -81.90387,-11.5718 -120.3798,-16.2219 -157.5,-19.035 -9.96963,-0.7555 -12.5,-2.0786 -12.5,-6.5358 0,-6.6958 3.45232,-7.0656 36.5,-3.9093 31.95413,3.0518 63.68703,7.1285 136,17.4715 114.39083,16.3615 149.94269,19.9835 208,21.1912 34.05629,0.7083 53.21059,-0.4059 72.10155,-4.1944 28.57729,-5.731 47.71691,-15.5499 64.08062,-32.8744 20.48946,-21.6925 30.22906,-48.3706 35.44936,-97.101 1.8287,-17.07058 1.3213,-64.59883 -1.0782,-101 -4.8445,-73.4906 -3.6286,-117.81039 4.0584,-147.9334 11.6256,-45.55702 41.4161,-70.36379 92.5499,-77.06684 14.1164,-1.8505 12.9496,-1.88856 15.3384,0.50024 2.5677,2.56768 2.72,8.55858 0.25,9.83146 -0.9625,0.49601 -5.2498,1.20671 -9.5273,1.57935 -4.2775,0.37264 -12.333,1.82636 -17.9011,3.23049 -20.3037,5.12003 -34.3763,12.8939 -46.5602,25.72029 -18.3055,19.27093 -25.4555,42.20334 -28.2924,90.74256 -1.2671,21.68012 -0.7665,37.98241 2.7602,89.89585 3.0139,44.3646 3.6589,93.82728 1.4669,112.5 -3.9594,33.7288 -13.7802,63.7333 -27.4538,83.877 -15.77157,23.2343 -42.51568,40.3821 -75.02491,48.1043 -21.49416,5.1058 -28.86675,5.7623 -67.71742,6.0301 -20.075,0.1384 -38.3,0.0867 -40.5,-0.1148 z m 50.5,-188.4463 c -29.77823,-2.0038 -63.74636,-6.92821 -79.78832,-11.56704 -22.78929,-6.58993 -41.52804,-21.07525 -50.30084,-38.88326 -11.05823,-22.44723 -13.27847,-52.95978 -8.00413,-110 1.11885,-12.1 3.17587,-35.275 4.57116,-51.5 4.08995,-47.55955 6.17705,-67.04984 14.02807,-130.999996 10.89428,-88.7389497 12.82113,-109.10534 14.67838,-155.14766 3.35153,-83.086194 -8.13166,-158.524454 -30.42146,-199.852344 -10.66756,-19.77891 -27.43956,-39.26435 -44.74071,-51.97905 -32.60777,-23.96362 -73.28985,-40.00872 -115.32337,-45.48379 -6.49067,-0.84544 -14.25317,-1.53716 -17.25,-1.53716 -8.65498,0 -9.0407,-4.27782 -7.19878,-10.50406 0.23486,-0.79389 0.51902,-2.4694 2.25,-2.61559 3.79992,-0.32093 5.24628,-0.7676 12.92964,1.11351 70.78613,17.33053 140.77323,41.19647 174.08459,90.59505 26.52503,39.33489 41.12392,113.54515 39.13046,198.911094 -1.13706,48.69275 -4.17316,82.07462029 -17.14417,188.499996 -6.89919,56.60691 -8.85421,74.68627 -11.94896,110.5 -1.37827,15.95 -3.70687,40.025 -5.17465,53.5 -3.47033,31.8595 -3.95601,70.49243 -1.05542,83.95259 4.8473,22.49382 12.88363,36.6071 27.07002,47.53997 14.90553,11.48708 34.59676,16.47005 83.10849,21.03104 15.21735,1.43071 76.14699,3.81261 77.41893,3.02651 0.3312,-0.2047 12.2132,-0.50555 26.40442,-0.66856 27.99542,-0.32158 27.62814,-0.39055 27.66134,5.19414 0.009,1.45005 -1.33222,3.33929 -2.41513,4.85896 -0.89276,1.25283 -0.93687,2.2164 -2.43045,2.28329 -12.69147,0.56838 -20.78503,0.26477 -48.31955,0.32039 -26.57602,0.0537 -54.39456,-0.0884 -61.81956,-0.58803 z m 184.18033,-6.44821 c -2.4383,-3.09983 -2.8321,-6.7163 -0.9053,-8.31535 1.9453,-1.61452 8.5307,-2.11022 42.6276,-3.2087 28.8128,-0.92825 31.5551,-0.8738 33.25,0.66012 2.5105,2.27191 2.3232,5.97688 -0.4417,8.74186 -2.2305,2.2305 -2.9585,2.3063 -28.4373,2.96099 -14.3815,0.36955 -30.1453,0.95562 -35.0306,1.30239 -8.8354,0.62715 -8.894,0.6158 -11.0627,-2.14131 z m -4.5253,-111.33083 c -2.3106,-2.55316 -2.0625,-5.85468 0.6432,-8.5604 2.1959,-2.19592 3.1864,-2.32609 22.25,-2.9239 11.5614,-0.36255 27.7316,-1.6431 38.4518,-3.04507 11.9289,-1.56005 19.1134,-2.09559 20.2271,-1.50774 4.096,2.16221 4.7048,8.76157 0.9915,10.74885 -4.0415,2.16294 -54.6329,7.06348 -73.3136,7.10153 -6.101,0.0124 -7.9206,-0.34428 -9.25,-1.81327 z m -85.26394,-18.50982 c -14.95965,-8.06432 -31.30104,-21.17642 -41.53252,-33.32512 -24.60042,-29.21016 -37.48355,-63.98152 -43.54655,-117.53145 -2.74288,-24.22579 -2.48111,-97.754396 0.50308,-141.3048657 3.21842,-46.9690003 4.41482,-57.1653403 8.75234,-74.5923503 9.33692,-37.513244 35.8593,-67.417654 77.93256,-87.870204 39.80023,-19.34762 93.18733,-30.42615 164.50003,-34.13599 37.0811,-1.92903 124.0642,0.24711 127.6134,3.19264 0.7626,0.63293 1.3866,2.90534 1.3866,5.04978 0,6.04067 -1.2247,6.27427 -26.1538,4.98867 -54.3116,-2.80086 -98.9829,-2.33974 -135.8462,1.40225 -106.2449,10.78492 -172.10376,43.18382 -192.37266,94.636674 -6.80886,17.28438 -9.49217,35.35906 -13.26142,89.32853 -3.08108,44.11595 -3.81112,103.637816 -1.56379,127.499996 5.84425,62.05453 20.04538,99.81461 48.16823,128.07684 8.6102,8.65288 16.72417,14.67891 34.24975,25.43639 5.66066,3.4746 4.815,12.55113 -1.16127,12.46406 -0.85738,-0.0125 -4.30788,-1.50463 -7.66778,-3.31585 z m 238.77494,-133.5173 c -8.6208,-0.53735 -10.5687,-0.96595 -11.75,-2.58527 -2.0167,-2.76457 -1.7516,-6.22329 0.662,-8.63688 1.8887,-1.88868 2.777,-2.0122 9.75,-1.35565 12.1201,1.14116 45.8586,0.8594 54.9088,-0.45856 22.2557,-3.24107 35.1973,-8.82688 46.3482,-20.00454 16.3331,-16.37231 23.4797,-37.618946 24.5893,-73.103236 0.8801,-28.14656 -1.1479,-48.51231 -10.2068,-102.5 -13.0012,-77.482464 -12.5754,-71.136794 -13.457,-200.500004 -0.6128,-89.9137 -1.0211,-111.15519 -2.3839,-124 -3.3686,-31.75118 -7.5815,-49.14855 -16.1032,-66.5 -13.9162,-28.33513 -32.8238,-40.97285 -71.0234,-47.47168 -16.2857,-2.77065 -29.8651,-3.89207 -61,-5.03751 -15.4,-0.56657 -43.075,-1.68323 -61.5,-2.48148 -103.38303,-4.47898 -194.83537,-3.96559 -273.50003,1.53537 -48.18053,3.36922 -129.08109,12.59214 -166,18.92453 -69.74696,11.96309 -107.33263,34.76295 -117.09458,71.03077 -1.21384,4.50969 -1.73058,10.02132 -1.68757,18 0.0962,17.84628 3.96585,33.17643 17.29093,68.5 19.75354,52.36486 30.42271,88.47342 36.34342,123 4.94443,28.83344 5.93596,40.98863 6.19951,76 0.26149,34.738434 0.85416,40.491534 5.43172,52.726174 1.14527,3.06101 3.87608,8.34079 6.06847,11.73284 16.43701,25.43124 45.18157,37.6668603 95.91265,40.8268703 11.15095,0.69459 11.50655,0.78934 13,3.46412 1.38206,2.47527999 1.01264,2.8902119 -0.0153,5.5 -0.7594,1.9279919 2.57426,2.0913425 -1.55074,2.75 -4.125,0.6586575 3.88035,1.1450333 -14.94926,-0.11537 -22.56607,-1.5105117 -42.74965,-3.6137 -59.98005,-10.26865 -22.71195,-8.7721003 -40.17329,-25.7601803 -48.39719,-47.0854603 -4.81325,-12.48118 -6.02089,-21.70448 -7.07443,-54.030524 -1.05169,-32.26909 -2.07861,-45.51152 -5.11816,-66 -5.76055,-38.82973 -19.35117,-87.09288 -36.91006,-131.07531 -14.49414,-36.30567 -17.94809,-49.42629 -18.67067,-70.92469 -0.4497,-13.37957 -0.2397,-16.67606 1.53504,-24.09683 3.91716,-16.3789 11.22392,-28.95416 23.72134,-40.82549 27.27913,-25.9125 65.56064,-37.55386 164.55279,-50.04028 124.77462,-15.73852 234.1763,-18.4719 420.89217,-10.51593 71.762,3.05778 88.7052,4.96727 111.4151,12.55647 40.4987,13.53381 60.2799,42.60908 69.0023,101.42206 3.7821,25.50197 4.0137,33.19314 4.1114,136.5 0.1164,123.15753 -0.015,120.989 11.5625,190.449314 12.6828,76.08945 15.2927,113.29606 10.2452,146.05069 -6.8067,44.169616 -31.246,69.029216 -75.2893,76.584026 -12.6917,2.17701 -41.89,3.18153 -59.8812,2.06011 z M 789.55577,2.2750943 c -2.43632,-2.43632001 -2.81367,-7.31259 -0.70154,-9.0655 1.65392,-1.37264 17.31409,-2.68779 43.60913,-3.6623303 16.7382,-0.62035 18.70104,-0.52068 20.25,1.0282703 2.24328,2.24329 2.19076,6.83201 -0.10194,8.90687999 -1.48435,1.34332 -5.74242,1.82790001 -23.25,2.64595001 -11.78807,0.55079 -25.08811,1.28776 -29.55565,1.63769 -7.41805,0.58104 -8.30736,0.45168 -10.25,-1.49096 z"
       style="fill:#000000"
       id="path4507"
       inkscape:connector-curvature="0" />
  </g>
</svg>
